<svg width="235" height="75" viewBox="0 0 235 75" fill="none" xmlns="http://www.w3.org/2000/svg">
<g filter="url(#filter0_d_242_158)">
<mask id="path-1-outside-1_242_158" maskUnits="userSpaceOnUse" x="8.99231" y="5.0643" width="220.492" height="69.5733" fill="black">
<rect fill="white" x="8.99231" y="5.0643" width="220.492" height="69.5733"/>
<path d="M26.8006 14.1023C26.7918 15.3057 26.5075 16.4085 25.9477 17.4106C25.3881 18.3931 24.534 19.186 23.3853 19.7894C22.2366 20.3928 20.8139 20.6884 19.1173 20.6762L15.9806 20.6538L15.926 28.111L10.8658 28.0747L11.0177 7.30111L19.2147 7.3598C20.8719 7.37166 22.2705 7.66775 23.4105 8.24805C24.5505 8.82836 25.4029 9.62362 25.9677 10.6339C26.5325 11.6441 26.8101 12.8002 26.8006 14.1023ZM18.7621 16.649C19.7287 16.6559 20.4505 16.4342 20.9273 15.9838C21.404 15.5334 21.6455 14.894 21.6515 14.0654C21.6576 13.2368 21.4255 12.594 20.9554 12.1368C20.4852 11.6797 19.7668 11.4477 18.8001 11.4407L16.0481 11.421L16.01 16.6293L18.7621 16.649ZM39.6041 11.5897C41.498 11.6033 43.0124 12.2454 44.1474 13.5162C45.2826 14.7673 45.8421 16.4877 45.8261 18.6775L45.7556 28.3245L40.7249 28.2885L40.7905 19.3221C40.7985 18.2174 40.5188 17.3571 39.9511 16.7415C39.3835 16.1258 38.6163 15.8145 37.6496 15.8076C36.683 15.8007 35.9113 16.1009 35.3348 16.7084C34.7582 17.3159 34.4658 18.172 34.4578 19.2768L34.3922 28.2432L29.3319 28.207L29.4921 6.30882L34.5523 6.34505L34.4967 13.9502C35.015 13.2239 35.7196 12.647 36.6105 12.2193C37.5015 11.7917 38.4993 11.5818 39.6041 11.5897ZM56.7866 28.6403C55.1689 28.6287 53.7115 28.273 52.4145 27.5732C51.1373 26.8735 50.1285 25.8799 49.3882 24.5922C48.6676 23.3046 48.3136 21.8027 48.3262 20.0863C48.3386 18.3897 48.7243 16.9029 49.4834 15.626C50.2425 14.3293 51.2757 13.3404 52.5828 12.6592C53.8899 11.9781 55.3523 11.6433 56.97 11.6548C58.5877 11.6664 60.045 12.0221 61.3421 12.7219C62.6391 13.4217 63.6576 14.4253 64.3978 15.7328C65.1381 17.0205 65.502 18.5126 65.4896 20.2092C65.4772 21.9058 65.0815 23.4024 64.3026 24.6989C63.5436 25.9759 62.5006 26.9549 61.1738 27.6359C59.8667 28.3171 58.4043 28.6519 56.7866 28.6403ZM56.8186 24.2606C57.7853 24.2676 58.6066 23.9183 59.2826 23.2129C59.9782 22.5077 60.3309 21.4941 60.3406 20.1723C60.3502 18.8506 60.0223 17.8322 59.3567 17.1172C58.7109 16.4023 57.9046 16.0414 56.938 16.0345C55.9516 16.0274 55.1302 16.3767 54.474 17.0822C53.818 17.768 53.485 18.7817 53.4752 20.1232C53.4655 21.445 53.7738 22.4632 54.3999 23.178C55.0457 23.8928 55.8519 24.2537 56.8186 24.2606ZM78.2972 11.8667C80.2305 11.8806 81.7647 12.5229 82.8997 13.7937C84.0545 15.0449 84.624 16.7654 84.608 18.9552L84.5374 28.6022L79.5067 28.5662L79.5723 19.5998C79.5804 18.495 79.3006 17.6348 78.733 17.0191C78.1653 16.4035 77.3982 16.0922 76.4315 16.0853C75.4648 16.0783 74.6932 16.3786 74.1166 16.9861C73.54 17.5936 73.2477 18.4497 73.2396 19.5545L73.174 28.5209L68.1138 28.4846L68.2345 11.9722L73.2948 12.0085L73.2788 14.1983C73.797 13.472 74.4917 12.9049 75.3628 12.4968C76.234 12.069 77.2121 11.859 78.2972 11.8667ZM103.682 20.2163C103.678 20.6898 103.645 21.1828 103.582 21.6953L92.1298 21.6133C92.2012 22.6397 92.521 23.4312 93.089 23.9876C93.677 24.5245 94.3951 24.796 95.2434 24.8021C96.506 24.8111 97.3878 24.2848 97.8888 23.223L103.275 23.2615C102.99 24.3446 102.48 25.3175 101.744 26.1804C101.027 27.0433 100.125 27.7175 99.0361 28.2029C97.9475 28.6884 96.7324 28.9263 95.3909 28.9167C93.7732 28.9051 92.3356 28.5495 91.078 27.85C89.8205 27.1505 88.8413 26.157 88.1404 24.8696C87.4396 23.5822 87.0955 22.0803 87.108 20.364C87.1206 18.6477 87.4768 17.1508 88.1766 15.8734C88.8962 14.5962 89.8898 13.6168 91.1575 12.9354C92.4251 12.254 93.8777 11.9191 95.5151 11.9308C97.1131 11.9423 98.531 12.2878 99.769 12.9675C101.007 13.6471 101.967 14.6108 102.648 15.8587C103.349 17.1066 103.694 18.5592 103.682 20.2163ZM98.5127 18.8476C98.519 17.9796 98.2281 17.287 97.64 16.7698C97.052 16.2526 96.314 15.9909 95.4263 15.9845C94.578 15.9784 93.8561 16.2199 93.2606 16.7088C92.6849 17.198 92.3247 17.8958 92.18 18.8023L98.5127 18.8476ZM126.235 8.12603L126.206 12.1801L117.742 12.1196L117.71 16.4992L124.043 16.5445L124.014 20.4803L117.681 20.4349L117.62 28.8391L112.56 28.8028L112.712 8.02921L126.235 8.12603ZM127.797 20.6257C127.81 18.9291 128.136 17.4419 128.777 16.1641C129.437 14.8864 130.323 13.9063 131.432 13.2238C132.542 12.5412 133.778 12.2048 135.139 12.2145C136.303 12.2228 137.317 12.4669 138.182 12.9465C139.066 13.4264 139.742 14.0527 140.21 14.8255L140.227 12.4877L145.287 12.5239L145.167 29.0363L140.106 29.0001L140.123 26.6623C139.625 27.4282 138.93 28.0447 138.038 28.5118C137.167 28.979 136.149 29.2085 134.985 29.2002C133.644 29.1906 132.423 28.8366 131.323 28.1382C130.224 27.42 129.353 26.4175 128.711 25.1305C128.09 23.8239 127.785 22.3223 127.797 20.6257ZM140.167 20.7439C140.176 19.4813 139.828 18.4825 139.123 17.7475C138.438 17.0126 137.592 16.6415 136.586 16.6343C135.58 16.6271 134.719 16.9859 134.004 17.7108C133.308 18.4161 132.956 19.4 132.946 20.6626C132.937 21.9252 133.275 22.9338 133.96 23.6884C134.665 24.4234 135.52 24.7945 136.527 24.8017C137.533 24.8089 138.384 24.45 139.079 23.7251C139.795 23.0002 140.157 22.0065 140.167 20.7439ZM147.882 20.7991C147.894 19.0828 148.25 17.5859 148.95 16.3085C149.67 15.0313 150.654 14.0519 151.902 13.3703C153.169 12.6889 154.612 12.3539 156.23 12.3655C158.301 12.3803 160.023 12.9352 161.396 14.0302C162.789 15.1252 163.695 16.6607 164.115 18.6366L158.729 18.5981C158.285 17.3322 157.411 16.6946 156.109 16.6853C155.182 16.6787 154.439 17.0384 153.882 17.7643C153.324 18.4706 153.04 19.4945 153.031 20.836C153.021 22.1775 153.289 23.2152 153.837 23.9491C154.384 24.6633 155.121 25.0237 156.048 25.0303C157.35 25.0396 158.233 24.4146 158.696 23.1553L164.081 23.1938C163.633 25.1241 162.705 26.6365 161.296 27.7313C159.887 28.826 158.157 29.3661 156.105 29.3514C154.488 29.3398 153.05 28.9842 151.792 28.2847C150.555 27.5853 149.585 26.5919 148.884 25.3045C148.203 24.0173 147.869 22.5155 147.882 20.7991ZM175.979 24.9658L175.948 29.2567L173.373 29.2383C171.538 29.2251 170.111 28.771 169.092 27.8759C168.073 26.9611 167.571 25.4876 167.585 23.4557L167.634 16.8862L165.621 16.8718L165.652 12.6697L167.664 12.6841L167.694 8.65961L172.754 8.69584L172.724 12.7204L176.039 12.7441L176.008 16.9462L172.694 16.9224L172.645 23.5511C172.642 24.0443 172.757 24.4002 172.993 24.6189C173.228 24.8376 173.622 24.949 174.174 24.9529L175.979 24.9658ZM186.281 29.5674C184.663 29.5558 183.206 29.2001 181.909 28.5003C180.632 27.8007 179.623 26.807 178.883 25.5193C178.162 24.2318 177.808 22.7298 177.821 21.0135C177.833 19.3169 178.219 17.8301 178.978 16.5531C179.737 15.2564 180.77 14.2675 182.077 13.5864C183.384 12.9052 184.847 12.5704 186.464 12.582C188.082 12.5936 189.539 12.9493 190.836 13.6491C192.133 14.3489 193.152 15.3525 193.892 16.6599C194.632 17.9476 194.996 19.4397 194.984 21.1364C194.972 22.833 194.576 24.3295 193.797 25.6261C193.038 26.903 191.995 27.882 190.668 28.5631C189.361 29.2442 187.899 29.579 186.281 29.5674ZM186.313 25.1878C187.28 25.1947 188.101 24.8455 188.777 24.1401C189.473 23.4348 189.825 22.4213 189.835 21.0995C189.845 19.7777 189.517 18.7593 188.851 18.0443C188.205 17.3294 187.399 16.9685 186.432 16.9616C185.446 16.9546 184.625 17.3038 183.968 18.0093C183.312 18.6952 182.979 19.7088 182.97 21.0503C182.96 22.3721 183.268 23.3904 183.894 24.1051C184.54 24.82 185.346 25.1809 186.313 25.1878ZM202.769 15.6877C203.368 14.7844 204.112 14.0795 205.004 13.5729C205.896 13.0466 206.884 12.7874 207.969 12.7951L207.93 18.1513L206.539 18.1414C205.276 18.1323 204.328 18.4017 203.692 18.9496C203.057 19.4777 202.734 20.4224 202.724 21.7837L202.668 29.448L197.608 29.4118L197.729 12.8994L202.789 12.9356L202.769 15.6877ZM227.254 13.1108L216.719 37.3909L211.274 37.3519L215.123 28.9749L208.522 12.9767L214.174 13.0171L217.916 23.3721L221.779 13.0716L227.254 13.1108ZM78.8862 43.788L78.8566 47.8421L73.3524 47.8027L73.2302 64.5222L68.1699 64.486L68.2922 47.7664L62.788 47.727L62.8177 43.6729L78.8862 43.788ZM98.2621 48.1882L87.7268 72.4683L82.2819 72.4293L86.1311 64.0523L79.5303 48.054L85.1824 48.0945L88.9243 58.4495L92.7876 48.149L98.2621 48.1882ZM99.0255 56.4502C99.038 54.7339 99.3943 53.237 100.094 51.9597C100.814 50.6824 101.797 49.703 103.045 49.0214C104.313 48.34 105.756 48.0051 107.373 48.0166C109.445 48.0315 111.167 48.5864 112.54 49.6813C113.933 50.7764 114.839 52.3119 115.259 54.2878L109.873 54.2492C109.428 52.9834 108.555 52.3458 107.253 52.3365C106.326 52.3298 105.583 52.6895 105.026 53.4155C104.468 54.1217 104.184 55.1456 104.175 56.4871C104.165 57.8286 104.433 58.8663 104.98 59.6002C105.528 60.3144 106.265 60.6748 107.192 60.6814C108.494 60.6907 109.377 60.0657 109.84 58.8064L115.225 58.8449C114.777 60.7752 113.849 62.2877 112.44 63.3824C111.031 64.4772 109.301 65.0172 107.249 65.0025C105.631 64.9909 104.194 64.6354 102.936 63.9358C101.698 63.2365 100.729 62.2431 100.028 60.9557C99.3472 59.6684 99.0129 58.1666 99.0255 56.4502ZM125.403 65.1325C123.785 65.1209 122.328 64.7652 121.031 64.0654C119.754 63.3657 118.745 62.3721 118.005 61.0844C117.284 59.7968 116.93 58.2949 116.943 56.5785C116.955 54.8819 117.341 53.3951 118.1 52.1182C118.859 50.8215 119.892 49.8326 121.199 49.1514C122.506 48.4703 123.969 48.1355 125.586 48.147C127.204 48.1586 128.661 48.5143 129.958 49.2141C131.255 49.9139 132.274 50.9175 133.014 52.225C133.754 53.5127 134.118 55.0048 134.106 56.7014C134.094 58.398 133.698 59.8946 132.919 61.1911C132.16 62.4681 131.117 63.4471 129.79 64.1281C128.483 64.8093 127.021 65.1441 125.403 65.1325ZM125.435 60.7528C126.402 60.7598 127.223 60.4105 127.899 59.7051C128.595 58.9999 128.947 57.9863 128.957 56.6645C128.967 55.3428 128.639 54.3244 127.973 53.6094C127.327 52.8945 126.521 52.5336 125.554 52.5267C124.568 52.5196 123.747 52.8689 123.09 53.5744C122.434 54.2602 122.101 55.2739 122.092 56.6154C122.082 57.9372 122.39 58.9554 123.016 59.6702C123.662 60.385 124.468 60.7459 125.435 60.7528ZM144.245 65.2674C142.627 65.2558 141.17 64.9001 139.873 64.2003C138.596 63.5006 137.587 62.507 136.846 61.2193C136.126 59.9317 135.772 58.4298 135.784 56.7134C135.797 55.0168 136.183 53.53 136.942 52.2531C137.701 50.9564 138.734 49.9675 140.041 49.2863C141.348 48.6052 142.811 48.2704 144.428 48.2819C146.046 48.2935 147.503 48.6492 148.8 49.349C150.097 50.0488 151.116 51.0524 151.856 52.3599C152.596 53.6476 152.96 55.1397 152.948 56.8363C152.935 58.5329 152.54 60.0295 151.761 61.326C151.002 62.603 149.959 63.582 148.632 64.263C147.325 64.9442 145.863 65.279 144.245 65.2674ZM144.277 60.8877C145.244 60.8947 146.065 60.5454 146.741 59.84C147.436 59.1348 147.789 58.1212 147.799 56.7995C147.808 55.4777 147.481 54.4593 146.815 53.7443C146.169 53.0294 145.363 52.6685 144.396 52.6616C143.41 52.6545 142.589 53.0038 141.932 53.7093C141.276 54.3951 140.943 55.4088 140.933 56.7503C140.924 58.0721 141.232 59.0903 141.858 59.8051C142.504 60.5199 143.31 60.8808 144.277 60.8877ZM165.755 48.4938C167.689 48.5077 169.223 49.15 170.358 50.4208C171.513 51.672 172.082 53.3925 172.066 55.5823L171.996 65.2293L166.965 65.1933L167.031 56.2269C167.039 55.1221 166.759 54.2619 166.191 53.6462C165.624 53.0306 164.856 52.7193 163.89 52.7124C162.923 52.7054 162.151 53.0057 161.575 53.6132C160.998 54.2207 160.706 55.0768 160.698 56.1816L160.632 65.148L155.572 65.1117L155.693 48.5993L160.753 48.6356L160.737 50.8254C161.255 50.0991 161.95 49.532 162.821 49.1239C163.692 48.6961 164.67 48.4861 165.755 48.4938Z"/>
</mask>
<path d="M26.8006 14.1023C26.7918 15.3057 26.5075 16.4085 25.9477 17.4106C25.3881 18.3931 24.534 19.186 23.3853 19.7894C22.2366 20.3928 20.8139 20.6884 19.1173 20.6762L15.9806 20.6538L15.926 28.111L10.8658 28.0747L11.0177 7.30111L19.2147 7.3598C20.8719 7.37166 22.2705 7.66775 23.4105 8.24805C24.5505 8.82836 25.4029 9.62362 25.9677 10.6339C26.5325 11.6441 26.8101 12.8002 26.8006 14.1023ZM18.7621 16.649C19.7287 16.6559 20.4505 16.4342 20.9273 15.9838C21.404 15.5334 21.6455 14.894 21.6515 14.0654C21.6576 13.2368 21.4255 12.594 20.9554 12.1368C20.4852 11.6797 19.7668 11.4477 18.8001 11.4407L16.0481 11.421L16.01 16.6293L18.7621 16.649ZM39.6041 11.5897C41.498 11.6033 43.0124 12.2454 44.1474 13.5162C45.2826 14.7673 45.8421 16.4877 45.8261 18.6775L45.7556 28.3245L40.7249 28.2885L40.7905 19.3221C40.7985 18.2174 40.5188 17.3571 39.9511 16.7415C39.3835 16.1258 38.6163 15.8145 37.6496 15.8076C36.683 15.8007 35.9113 16.1009 35.3348 16.7084C34.7582 17.3159 34.4658 18.172 34.4578 19.2768L34.3922 28.2432L29.3319 28.207L29.4921 6.30882L34.5523 6.34505L34.4967 13.9502C35.015 13.2239 35.7196 12.647 36.6105 12.2193C37.5015 11.7917 38.4993 11.5818 39.6041 11.5897ZM56.7866 28.6403C55.1689 28.6287 53.7115 28.273 52.4145 27.5732C51.1373 26.8735 50.1285 25.8799 49.3882 24.5922C48.6676 23.3046 48.3136 21.8027 48.3262 20.0863C48.3386 18.3897 48.7243 16.9029 49.4834 15.626C50.2425 14.3293 51.2757 13.3404 52.5828 12.6592C53.8899 11.9781 55.3523 11.6433 56.97 11.6548C58.5877 11.6664 60.045 12.0221 61.3421 12.7219C62.6391 13.4217 63.6576 14.4253 64.3978 15.7328C65.1381 17.0205 65.502 18.5126 65.4896 20.2092C65.4772 21.9058 65.0815 23.4024 64.3026 24.6989C63.5436 25.9759 62.5006 26.9549 61.1738 27.6359C59.8667 28.3171 58.4043 28.6519 56.7866 28.6403ZM56.8186 24.2606C57.7853 24.2676 58.6066 23.9183 59.2826 23.2129C59.9782 22.5077 60.3309 21.4941 60.3406 20.1723C60.3502 18.8506 60.0223 17.8322 59.3567 17.1172C58.7109 16.4023 57.9046 16.0414 56.938 16.0345C55.9516 16.0274 55.1302 16.3767 54.474 17.0822C53.818 17.768 53.485 18.7817 53.4752 20.1232C53.4655 21.445 53.7738 22.4632 54.3999 23.178C55.0457 23.8928 55.8519 24.2537 56.8186 24.2606ZM78.2972 11.8667C80.2305 11.8806 81.7647 12.5229 82.8997 13.7937C84.0545 15.0449 84.624 16.7654 84.608 18.9552L84.5374 28.6022L79.5067 28.5662L79.5723 19.5998C79.5804 18.495 79.3006 17.6348 78.733 17.0191C78.1653 16.4035 77.3982 16.0922 76.4315 16.0853C75.4648 16.0783 74.6932 16.3786 74.1166 16.9861C73.54 17.5936 73.2477 18.4497 73.2396 19.5545L73.174 28.5209L68.1138 28.4846L68.2345 11.9722L73.2948 12.0085L73.2788 14.1983C73.797 13.472 74.4917 12.9049 75.3628 12.4968C76.234 12.069 77.2121 11.859 78.2972 11.8667ZM103.682 20.2163C103.678 20.6898 103.645 21.1828 103.582 21.6953L92.1298 21.6133C92.2012 22.6397 92.521 23.4312 93.089 23.9876C93.677 24.5245 94.3951 24.796 95.2434 24.8021C96.506 24.8111 97.3878 24.2848 97.8888 23.223L103.275 23.2615C102.99 24.3446 102.48 25.3175 101.744 26.1804C101.027 27.0433 100.125 27.7175 99.0361 28.2029C97.9475 28.6884 96.7324 28.9263 95.3909 28.9167C93.7732 28.9051 92.3356 28.5495 91.078 27.85C89.8205 27.1505 88.8413 26.157 88.1404 24.8696C87.4396 23.5822 87.0955 22.0803 87.108 20.364C87.1206 18.6477 87.4768 17.1508 88.1766 15.8734C88.8962 14.5962 89.8898 13.6168 91.1575 12.9354C92.4251 12.254 93.8777 11.9191 95.5151 11.9308C97.1131 11.9423 98.531 12.2878 99.769 12.9675C101.007 13.6471 101.967 14.6108 102.648 15.8587C103.349 17.1066 103.694 18.5592 103.682 20.2163ZM98.5127 18.8476C98.519 17.9796 98.2281 17.287 97.64 16.7698C97.052 16.2526 96.314 15.9909 95.4263 15.9845C94.578 15.9784 93.8561 16.2199 93.2606 16.7088C92.6849 17.198 92.3247 17.8958 92.18 18.8023L98.5127 18.8476ZM126.235 8.12603L126.206 12.1801L117.742 12.1196L117.71 16.4992L124.043 16.5445L124.014 20.4803L117.681 20.4349L117.62 28.8391L112.56 28.8028L112.712 8.02921L126.235 8.12603ZM127.797 20.6257C127.81 18.9291 128.136 17.4419 128.777 16.1641C129.437 14.8864 130.323 13.9063 131.432 13.2238C132.542 12.5412 133.778 12.2048 135.139 12.2145C136.303 12.2228 137.317 12.4669 138.182 12.9465C139.066 13.4264 139.742 14.0527 140.21 14.8255L140.227 12.4877L145.287 12.5239L145.167 29.0363L140.106 29.0001L140.123 26.6623C139.625 27.4282 138.93 28.0447 138.038 28.5118C137.167 28.979 136.149 29.2085 134.985 29.2002C133.644 29.1906 132.423 28.8366 131.323 28.1382C130.224 27.42 129.353 26.4175 128.711 25.1305C128.09 23.8239 127.785 22.3223 127.797 20.6257ZM140.167 20.7439C140.176 19.4813 139.828 18.4825 139.123 17.7475C138.438 17.0126 137.592 16.6415 136.586 16.6343C135.58 16.6271 134.719 16.9859 134.004 17.7108C133.308 18.4161 132.956 19.4 132.946 20.6626C132.937 21.9252 133.275 22.9338 133.96 23.6884C134.665 24.4234 135.52 24.7945 136.527 24.8017C137.533 24.8089 138.384 24.45 139.079 23.7251C139.795 23.0002 140.157 22.0065 140.167 20.7439ZM147.882 20.7991C147.894 19.0828 148.25 17.5859 148.95 16.3085C149.67 15.0313 150.654 14.0519 151.902 13.3703C153.169 12.6889 154.612 12.3539 156.23 12.3655C158.301 12.3803 160.023 12.9352 161.396 14.0302C162.789 15.1252 163.695 16.6607 164.115 18.6366L158.729 18.5981C158.285 17.3322 157.411 16.6946 156.109 16.6853C155.182 16.6787 154.439 17.0384 153.882 17.7643C153.324 18.4706 153.04 19.4945 153.031 20.836C153.021 22.1775 153.289 23.2152 153.837 23.9491C154.384 24.6633 155.121 25.0237 156.048 25.0303C157.35 25.0396 158.233 24.4146 158.696 23.1553L164.081 23.1938C163.633 25.1241 162.705 26.6365 161.296 27.7313C159.887 28.826 158.157 29.3661 156.105 29.3514C154.488 29.3398 153.05 28.9842 151.792 28.2847C150.555 27.5853 149.585 26.5919 148.884 25.3045C148.203 24.0173 147.869 22.5155 147.882 20.7991ZM175.979 24.9658L175.948 29.2567L173.373 29.2383C171.538 29.2251 170.111 28.771 169.092 27.8759C168.073 26.9611 167.571 25.4876 167.585 23.4557L167.634 16.8862L165.621 16.8718L165.652 12.6697L167.664 12.6841L167.694 8.65961L172.754 8.69584L172.724 12.7204L176.039 12.7441L176.008 16.9462L172.694 16.9224L172.645 23.5511C172.642 24.0443 172.757 24.4002 172.993 24.6189C173.228 24.8376 173.622 24.949 174.174 24.9529L175.979 24.9658ZM186.281 29.5674C184.663 29.5558 183.206 29.2001 181.909 28.5003C180.632 27.8007 179.623 26.807 178.883 25.5193C178.162 24.2318 177.808 22.7298 177.821 21.0135C177.833 19.3169 178.219 17.8301 178.978 16.5531C179.737 15.2564 180.77 14.2675 182.077 13.5864C183.384 12.9052 184.847 12.5704 186.464 12.582C188.082 12.5936 189.539 12.9493 190.836 13.6491C192.133 14.3489 193.152 15.3525 193.892 16.6599C194.632 17.9476 194.996 19.4397 194.984 21.1364C194.972 22.833 194.576 24.3295 193.797 25.6261C193.038 26.903 191.995 27.882 190.668 28.5631C189.361 29.2442 187.899 29.579 186.281 29.5674ZM186.313 25.1878C187.28 25.1947 188.101 24.8455 188.777 24.1401C189.473 23.4348 189.825 22.4213 189.835 21.0995C189.845 19.7777 189.517 18.7593 188.851 18.0443C188.205 17.3294 187.399 16.9685 186.432 16.9616C185.446 16.9546 184.625 17.3038 183.968 18.0093C183.312 18.6952 182.979 19.7088 182.97 21.0503C182.96 22.3721 183.268 23.3904 183.894 24.1051C184.54 24.82 185.346 25.1809 186.313 25.1878ZM202.769 15.6877C203.368 14.7844 204.112 14.0795 205.004 13.5729C205.896 13.0466 206.884 12.7874 207.969 12.7951L207.93 18.1513L206.539 18.1414C205.276 18.1323 204.328 18.4017 203.692 18.9496C203.057 19.4777 202.734 20.4224 202.724 21.7837L202.668 29.448L197.608 29.4118L197.729 12.8994L202.789 12.9356L202.769 15.6877ZM227.254 13.1108L216.719 37.3909L211.274 37.3519L215.123 28.9749L208.522 12.9767L214.174 13.0171L217.916 23.3721L221.779 13.0716L227.254 13.1108ZM78.8862 43.788L78.8566 47.8421L73.3524 47.8027L73.2302 64.5222L68.1699 64.486L68.2922 47.7664L62.788 47.727L62.8177 43.6729L78.8862 43.788ZM98.2621 48.1882L87.7268 72.4683L82.2819 72.4293L86.1311 64.0523L79.5303 48.054L85.1824 48.0945L88.9243 58.4495L92.7876 48.149L98.2621 48.1882ZM99.0255 56.4502C99.038 54.7339 99.3943 53.237 100.094 51.9597C100.814 50.6824 101.797 49.703 103.045 49.0214C104.313 48.34 105.756 48.0051 107.373 48.0166C109.445 48.0315 111.167 48.5864 112.54 49.6813C113.933 50.7764 114.839 52.3119 115.259 54.2878L109.873 54.2492C109.428 52.9834 108.555 52.3458 107.253 52.3365C106.326 52.3298 105.583 52.6895 105.026 53.4155C104.468 54.1217 104.184 55.1456 104.175 56.4871C104.165 57.8286 104.433 58.8663 104.98 59.6002C105.528 60.3144 106.265 60.6748 107.192 60.6814C108.494 60.6907 109.377 60.0657 109.84 58.8064L115.225 58.8449C114.777 60.7752 113.849 62.2877 112.44 63.3824C111.031 64.4772 109.301 65.0172 107.249 65.0025C105.631 64.9909 104.194 64.6354 102.936 63.9358C101.698 63.2365 100.729 62.2431 100.028 60.9557C99.3472 59.6684 99.0129 58.1666 99.0255 56.4502ZM125.403 65.1325C123.785 65.1209 122.328 64.7652 121.031 64.0654C119.754 63.3657 118.745 62.3721 118.005 61.0844C117.284 59.7968 116.93 58.2949 116.943 56.5785C116.955 54.8819 117.341 53.3951 118.1 52.1182C118.859 50.8215 119.892 49.8326 121.199 49.1514C122.506 48.4703 123.969 48.1355 125.586 48.147C127.204 48.1586 128.661 48.5143 129.958 49.2141C131.255 49.9139 132.274 50.9175 133.014 52.225C133.754 53.5127 134.118 55.0048 134.106 56.7014C134.094 58.398 133.698 59.8946 132.919 61.1911C132.16 62.4681 131.117 63.4471 129.79 64.1281C128.483 64.8093 127.021 65.1441 125.403 65.1325ZM125.435 60.7528C126.402 60.7598 127.223 60.4105 127.899 59.7051C128.595 58.9999 128.947 57.9863 128.957 56.6645C128.967 55.3428 128.639 54.3244 127.973 53.6094C127.327 52.8945 126.521 52.5336 125.554 52.5267C124.568 52.5196 123.747 52.8689 123.09 53.5744C122.434 54.2602 122.101 55.2739 122.092 56.6154C122.082 57.9372 122.39 58.9554 123.016 59.6702C123.662 60.385 124.468 60.7459 125.435 60.7528ZM144.245 65.2674C142.627 65.2558 141.17 64.9001 139.873 64.2003C138.596 63.5006 137.587 62.507 136.846 61.2193C136.126 59.9317 135.772 58.4298 135.784 56.7134C135.797 55.0168 136.183 53.53 136.942 52.2531C137.701 50.9564 138.734 49.9675 140.041 49.2863C141.348 48.6052 142.811 48.2704 144.428 48.2819C146.046 48.2935 147.503 48.6492 148.8 49.349C150.097 50.0488 151.116 51.0524 151.856 52.3599C152.596 53.6476 152.96 55.1397 152.948 56.8363C152.935 58.5329 152.54 60.0295 151.761 61.326C151.002 62.603 149.959 63.582 148.632 64.263C147.325 64.9442 145.863 65.279 144.245 65.2674ZM144.277 60.8877C145.244 60.8947 146.065 60.5454 146.741 59.84C147.436 59.1348 147.789 58.1212 147.799 56.7995C147.808 55.4777 147.481 54.4593 146.815 53.7443C146.169 53.0294 145.363 52.6685 144.396 52.6616C143.41 52.6545 142.589 53.0038 141.932 53.7093C141.276 54.3951 140.943 55.4088 140.933 56.7503C140.924 58.0721 141.232 59.0903 141.858 59.8051C142.504 60.5199 143.31 60.8808 144.277 60.8877ZM165.755 48.4938C167.689 48.5077 169.223 49.15 170.358 50.4208C171.513 51.672 172.082 53.3925 172.066 55.5823L171.996 65.2293L166.965 65.1933L167.031 56.2269C167.039 55.1221 166.759 54.2619 166.191 53.6462C165.624 53.0306 164.856 52.7193 163.89 52.7124C162.923 52.7054 162.151 53.0057 161.575 53.6132C160.998 54.2207 160.706 55.0768 160.698 56.1816L160.632 65.148L155.572 65.1117L155.693 48.5993L160.753 48.6356L160.737 50.8254C161.255 50.0991 161.95 49.532 162.821 49.1239C163.692 48.6961 164.67 48.4861 165.755 48.4938Z" fill="white"/>
<path d="M25.9477 17.4106L26.628 17.7981L26.6313 17.7923L25.9477 17.4106ZM23.3853 19.7894L23.0213 19.0963L23.3853 19.7894ZM15.9806 20.6538L15.9863 19.8709L15.2034 19.8653L15.1977 20.6482L15.9806 20.6538ZM15.926 28.111L15.9203 28.8939L16.7032 28.8995L16.7089 28.1166L15.926 28.111ZM10.8658 28.0747L10.0829 28.0691L10.0771 28.852L10.86 28.8576L10.8658 28.0747ZM11.0177 7.30111L11.0234 6.51821L10.2405 6.51261L10.2348 7.2955L11.0177 7.30111ZM23.4105 8.24805L23.7657 7.55032L23.7657 7.55032L23.4105 8.24805ZM20.9554 12.1368L20.4096 12.6982L20.9554 12.1368ZM16.0481 11.421L16.0538 10.6381L15.2709 10.6325L15.2652 11.4154L16.0481 11.421ZM16.01 16.6292L15.2271 16.6236L15.2214 17.4065L16.0043 17.4121L16.01 16.6292ZM26.0177 14.0967C26.0098 15.175 25.7566 16.1474 25.2642 17.029L26.6313 17.7923C27.2584 16.6695 27.5737 15.4364 27.5835 14.1079L26.0177 14.0967ZM25.2675 17.0232C24.7924 17.8573 24.0576 18.552 23.0213 19.0963L23.7493 20.4825C25.0104 19.8201 25.9839 18.9289 26.628 17.7981L25.2675 17.0232ZM23.0213 19.0963C22.0163 19.6242 20.7292 19.9048 19.123 19.8933L19.1116 21.4591C20.8986 21.4719 22.4569 21.1613 23.7493 20.4825L23.0213 19.0963ZM19.123 19.8933L15.9863 19.8709L15.9748 21.4367L19.1116 21.4591L19.123 19.8933ZM15.1977 20.6482L15.1431 28.1054L16.7089 28.1166L16.7635 20.6594L15.1977 20.6482ZM15.9317 27.3281L10.8715 27.2918L10.86 28.8576L15.9203 28.8939L15.9317 27.3281ZM11.6487 28.0804L11.8006 7.30671L10.2348 7.2955L10.0829 28.0691L11.6487 28.0804ZM11.012 8.084L19.209 8.14269L19.2204 6.5769L11.0234 6.51821L11.012 8.084ZM19.209 8.14269C20.7793 8.15393 22.0507 8.43444 23.0553 8.94579L23.7657 7.55032C22.4902 6.90105 20.9645 6.58939 19.2204 6.5769L19.209 8.14269ZM23.0553 8.94579C24.0722 9.46344 24.8031 10.1552 25.2843 11.016L26.6511 10.2517C26.0028 9.092 25.0289 8.19328 23.7657 7.55032L23.0553 8.94579ZM25.2843 11.016C25.7749 11.8935 26.0263 12.913 26.0177 14.0967L27.5835 14.1079C27.5938 12.6874 27.29 11.3946 26.6511 10.2517L25.2843 11.016ZM18.7563 17.4318C19.8303 17.4395 20.7845 17.1955 21.4648 16.5529L20.3897 15.4147C20.1165 15.6728 19.6272 15.8722 18.7678 15.8661L18.7563 17.4318ZM21.4648 16.5529C22.1353 15.9196 22.4272 15.0534 22.4344 14.071L20.8686 14.0598C20.8637 14.7345 20.6728 15.1473 20.3897 15.4147L21.4648 16.5529ZM22.4344 14.071C22.4416 13.0886 22.1624 12.2183 21.5012 11.5755L20.4096 12.6982C20.6887 12.9696 20.8736 13.3851 20.8686 14.0598L22.4344 14.071ZM21.5012 11.5755C20.8303 10.9232 19.8798 10.6655 18.8059 10.6579L18.7944 12.2236C19.6538 12.2298 20.1401 12.4362 20.4096 12.6982L21.5012 11.5755ZM18.8059 10.6579L16.0538 10.6381L16.0423 12.2039L18.7944 12.2236L18.8059 10.6579ZM15.2652 11.4154L15.2271 16.6236L16.7929 16.6349L16.831 11.4267L15.2652 11.4154ZM16.0043 17.4121L18.7563 17.4318L18.7678 15.8661L16.0157 15.8464L16.0043 17.4121ZM44.1474 13.5162L43.5634 14.0378L43.5676 14.0424L44.1474 13.5162ZM45.7556 28.3245L45.7498 29.1074L46.5327 29.113L46.5385 28.3302L45.7556 28.3245ZM40.7249 28.2885L39.942 28.2829L39.9363 29.0658L40.7192 29.0714L40.7249 28.2885ZM39.9511 16.7415L39.3755 17.2722L39.9511 16.7415ZM35.3348 16.7084L35.9026 17.2474L35.3348 16.7084ZM34.3922 28.2432L34.3865 29.0261L35.1694 29.0317L35.1751 28.2488L34.3922 28.2432ZM29.3319 28.207L28.549 28.2014L28.5433 28.9842L29.3262 28.9899L29.3319 28.207ZM29.4921 6.30882L29.4978 5.52593L28.7149 5.52032L28.7092 6.30322L29.4921 6.30882ZM34.5523 6.34505L35.3352 6.35066L35.3409 5.56776L34.5581 5.56216L34.5523 6.34505ZM34.4967 13.9502L33.7138 13.9446L33.6957 16.4204L35.134 14.4049L34.4967 13.9502ZM36.6105 12.2193L36.2718 11.5135L36.6105 12.2193ZM39.5984 12.3726C41.2987 12.3848 42.593 12.9512 43.5635 14.0378L44.7314 12.9946C43.4318 11.5396 41.6973 10.8218 39.6098 10.8068L39.5984 12.3726ZM43.5676 14.0424C44.5353 15.1089 45.0582 16.6186 45.0432 18.6719L46.609 18.6831C46.626 16.3568 46.0298 14.4257 44.7273 12.9901L43.5676 14.0424ZM45.0432 18.6719L44.9727 28.3189L46.5385 28.3302L46.609 18.6831L45.0432 18.6719ZM45.7613 27.5417L40.7306 27.5056L40.7192 29.0714L45.7498 29.1074L45.7613 27.5417ZM41.5078 28.2941L41.5734 19.3277L40.0076 19.3165L39.942 28.2829L41.5078 28.2941ZM41.5734 19.3277C41.5824 18.0894 41.2675 17.0141 40.5268 16.2107L39.3755 17.2722C39.7701 17.7002 40.0147 18.3453 40.0076 19.3165L41.5734 19.3277ZM40.5268 16.2107C39.7891 15.4107 38.8021 15.0329 37.6554 15.0247L37.6439 16.5905C38.4305 16.5961 38.9778 16.8409 39.3755 17.2722L40.5268 16.2107ZM37.6554 15.0247C36.5086 15.0165 35.5162 15.3801 34.7669 16.1695L35.9026 17.2474C36.3065 16.8218 36.8573 16.5849 37.6439 16.5905L37.6554 15.0247ZM34.7669 16.1695C34.0146 16.9622 33.6839 18.0329 33.6749 19.2712L35.2407 19.2824C35.2478 18.3112 35.5018 17.6696 35.9026 17.2474L34.7669 16.1695ZM33.6749 19.2712L33.6093 28.2376L35.1751 28.2488L35.2407 19.2824L33.6749 19.2712ZM34.3979 27.4603L29.3377 27.4241L29.3262 28.9899L34.3865 29.0261L34.3979 27.4603ZM30.1148 28.2126L30.275 6.31443L28.7092 6.30322L28.549 28.2014L30.1148 28.2126ZM29.4864 7.09172L34.5466 7.12795L34.5581 5.56216L29.4978 5.52593L29.4864 7.09172ZM33.7694 6.33945L33.7138 13.9446L35.2796 13.9558L35.3352 6.35066L33.7694 6.33945ZM35.134 14.4049C35.5675 13.7974 36.1643 13.3019 36.9492 12.9251L36.2718 11.5135C35.2749 11.9921 34.4625 12.6505 33.8594 13.4955L35.134 14.4049ZM36.9492 12.9251C37.7206 12.5549 38.5986 12.3654 39.5984 12.3726L39.6098 10.8068C38.4 10.7981 37.2823 11.0285 36.2718 11.5135L36.9492 12.9251ZM52.4145 27.5732L52.0383 28.2599L52.0427 28.2622L52.4145 27.5732ZM49.3882 24.5922L48.7049 24.9746L48.7094 24.9825L49.3882 24.5922ZM49.4834 15.626L50.1563 16.026L50.159 16.0215L49.4834 15.626ZM52.5828 12.6592L52.9445 13.3535L52.5828 12.6592ZM61.3421 12.7219L60.9702 13.411L61.3421 12.7219ZM64.3978 15.7328L63.7164 16.1185L63.719 16.123L64.3978 15.7328ZM64.3026 24.6989L63.6315 24.2958L63.6296 24.299L64.3026 24.6989ZM61.1738 27.6359L60.8164 26.9394L60.8121 26.9416L61.1738 27.6359ZM59.2826 23.2129L58.7252 22.6631L58.7173 22.6713L59.2826 23.2129ZM59.3567 17.1172L58.7757 17.6421L58.7836 17.6506L59.3567 17.1172ZM54.474 17.0822L55.0398 17.6234L55.0473 17.6154L54.474 17.0822ZM54.3999 23.178L53.8108 23.694L53.8189 23.7029L54.3999 23.178ZM56.7923 27.8574C55.2898 27.8466 53.9601 27.5175 52.7864 26.8842L52.0427 28.2622C53.4629 29.0285 55.048 29.4108 56.7809 29.4232L56.7923 27.8574ZM52.7907 26.8865C51.6423 26.2574 50.737 25.3675 50.067 24.2019L48.7094 24.9825C49.5199 26.3922 50.6323 27.4896 52.0383 28.2599L52.7907 26.8865ZM50.0714 24.2097C49.4273 23.0588 49.0973 21.6948 49.1091 20.0919L47.5433 20.0807C47.5299 21.9105 47.908 23.5504 48.705 24.9746L50.0714 24.2097ZM49.1091 20.0919C49.1206 18.5141 49.4779 17.1674 50.1563 16.0259L48.8104 15.226C47.9708 16.6385 47.5566 18.2653 47.5433 20.0807L49.1091 20.0919ZM50.159 16.0215C50.8452 14.8493 51.7707 13.9652 52.9445 13.3535L52.2211 11.9649C50.7806 12.7156 49.6398 13.8093 48.8077 15.2305L50.159 16.0215ZM52.9445 13.3535C54.1274 12.7371 55.4617 12.427 56.9643 12.4377L56.9757 10.872C55.2429 10.8595 53.6524 11.219 52.2211 11.9649L52.9445 13.3535ZM56.9643 12.4377C58.4668 12.4485 59.7964 12.7777 60.9702 13.411L61.7139 12.0329C60.2937 11.2666 58.7086 10.8844 56.9757 10.872L56.9643 12.4377ZM60.9702 13.411C62.1349 14.0394 63.0474 14.9367 63.7164 16.1185L65.0791 15.347C64.2679 13.914 63.1432 12.8041 61.7139 12.0329L60.9702 13.411ZM63.719 16.123C64.3807 17.2741 64.7182 18.6258 64.7067 20.2036L66.2725 20.2148C66.2858 18.3994 65.8954 16.7668 65.0765 15.3425L63.719 16.123ZM64.7067 20.2036C64.6952 21.7776 64.3298 23.1336 63.6315 24.2958L64.9737 25.1021C65.8333 23.6713 66.2592 22.0341 66.2725 20.2148L64.7067 20.2036ZM63.6296 24.299C62.9461 25.4489 62.0128 26.3253 60.8164 26.9394L61.5312 28.3324C62.9885 27.5845 64.141 26.5029 64.9756 25.0989L63.6296 24.299ZM60.8121 26.9416C59.6292 27.5581 58.2949 27.8681 56.7923 27.8574L56.7809 29.4232C58.5137 29.4356 60.1042 29.0761 61.5355 28.3302L60.8121 26.9416ZM56.8129 25.0435C57.9975 25.052 59.0246 24.6136 59.8478 23.7545L58.7173 22.6713C58.1886 23.223 57.5731 23.4831 56.8243 23.4778L56.8129 25.0435ZM59.8399 23.7627C60.7214 22.8691 61.1128 21.6335 61.1235 20.178L59.5577 20.1667C59.549 21.3548 59.2351 22.1463 58.7252 22.6632L59.8399 23.7627ZM61.1235 20.178C61.1341 18.7282 60.7737 17.4903 59.9298 16.5837L58.7836 17.6506C59.2708 18.1741 59.5664 18.973 59.5577 20.1667L61.1235 20.178ZM59.9377 16.5923C59.1442 15.7139 58.129 15.2601 56.9437 15.2516L56.9322 16.8174C57.6803 16.8227 58.2776 17.0906 58.7757 17.6421L59.9377 16.5923ZM56.9437 15.2516C55.7438 15.243 54.7105 15.6785 53.9008 16.549L55.0473 17.6154C55.55 17.0748 56.1593 16.8118 56.9322 16.8174L56.9437 15.2516ZM53.9083 16.541C53.066 17.4216 52.703 18.6592 52.6923 20.1176L54.2581 20.1288C54.2671 18.9042 54.5699 18.1145 55.0397 17.6234L53.9083 16.541ZM52.6923 20.1176C52.6818 21.5561 53.0165 22.7871 53.8109 23.6939L54.9888 22.662C54.531 22.1394 54.2493 21.3338 54.2581 20.1288L52.6923 20.1176ZM53.8189 23.7029C54.6124 24.5812 55.6276 25.0351 56.8129 25.0435L56.8243 23.4778C56.0763 23.4724 55.479 23.2045 54.9808 22.6531L53.8189 23.7029ZM82.8997 13.7937L82.3156 14.3153L82.3243 14.3247L82.8997 13.7937ZM84.5374 28.6022L84.5317 29.3851L85.3146 29.3907L85.3203 28.6078L84.5374 28.6022ZM79.5067 28.5662L78.7238 28.5606L78.7181 29.3435L79.501 29.3491L79.5067 28.5662ZM78.733 17.0191L78.1573 17.5499L78.733 17.0191ZM74.1166 16.9861L74.6844 17.525L74.1166 16.9861ZM73.174 28.5209L73.1683 29.3038L73.9512 29.3094L73.9569 28.5265L73.174 28.5209ZM68.1138 28.4846L67.3309 28.479L67.3252 29.2619L68.1081 29.2675L68.1138 28.4846ZM68.2345 11.9722L68.2403 11.1894L67.4574 11.1837L67.4516 11.9666L68.2345 11.9722ZM73.2948 12.0085L74.0777 12.0141L74.0834 11.2312L73.3005 11.2256L73.2948 12.0085ZM73.2788 14.1983L72.4959 14.1927L72.4778 16.6685L73.916 14.653L73.2788 14.1983ZM75.3628 12.4968L75.6948 13.2057L75.7013 13.2027L75.7078 13.1995L75.3628 12.4968ZM78.2914 12.6496C80.0367 12.6621 81.3485 13.2323 82.3157 14.3153L83.4836 13.2721C82.1808 11.8134 80.4243 11.099 78.3029 11.0838L78.2914 12.6496ZM82.3243 14.3247C83.3092 15.3917 83.84 16.8997 83.8251 18.9496L85.3909 18.9608C85.4079 16.6311 84.7999 14.698 83.475 13.2626L82.3243 14.3247ZM83.8251 18.9496L83.7545 28.5966L85.3203 28.6078L85.3909 18.9608L83.8251 18.9496ZM84.5431 27.8193L79.5125 27.7833L79.501 29.3491L84.5317 29.3851L84.5431 27.8193ZM80.2896 28.5718L80.3552 19.6054L78.7894 19.5942L78.7238 28.5606L80.2896 28.5718ZM80.3552 19.6054C80.3643 18.3671 80.0493 17.2918 79.3086 16.4884L78.1573 17.5499C78.5519 17.9779 78.7965 18.6229 78.7894 19.5942L80.3552 19.6054ZM79.3086 16.4884C78.571 15.6884 77.584 15.3106 76.4372 15.3024L76.4258 16.8682C77.2124 16.8738 77.7597 17.1186 78.1573 17.5499L79.3086 16.4884ZM76.4372 15.3024C75.2905 15.2942 74.298 15.6578 73.5488 16.4472L74.6844 17.525C75.0884 17.0995 75.6392 16.8625 76.4258 16.8682L76.4372 15.3024ZM73.5488 16.4472C72.7964 17.2398 72.4658 18.3106 72.4567 19.5489L74.0225 19.5601C74.0296 18.5888 74.2836 17.9473 74.6844 17.525L73.5488 16.4472ZM72.4567 19.5489L72.3911 28.5153L73.9569 28.5265L74.0225 19.5601L72.4567 19.5489ZM73.1798 27.738L68.1195 27.7017L68.1081 29.2675L73.1683 29.3038L73.1798 27.738ZM68.8967 28.4902L69.0174 11.9779L67.4516 11.9666L67.3309 28.479L68.8967 28.4902ZM68.2288 12.7551L73.2891 12.7914L73.3005 11.2256L68.2403 11.1894L68.2288 12.7551ZM72.5119 12.0029L72.4959 14.1927L74.0617 14.2039L74.0777 12.0141L72.5119 12.0029ZM73.916 14.653C74.3501 14.0448 74.9358 13.5613 75.6948 13.2057L75.0307 11.7878C74.0476 12.2484 73.244 12.8992 72.6415 13.7436L73.916 14.653ZM75.7078 13.1995C76.4576 12.8314 77.3134 12.6426 78.2914 12.6496L78.3029 11.0838C77.1108 11.0753 76.0104 11.3066 75.0178 11.794L75.7078 13.1995ZM103.582 21.6953L103.576 22.4782L104.274 22.4832L104.359 21.7906L103.582 21.6953ZM92.1298 21.6133L92.1355 20.8304L91.2901 20.8243L91.3488 21.6677L92.1298 21.6133ZM93.089 23.9876L92.5411 24.547L92.5509 24.5566L92.561 24.5658L93.089 23.9876ZM97.8888 23.223L97.8945 22.4401L97.3942 22.4365L97.1807 22.889L97.8888 23.223ZM103.275 23.2615L104.032 23.4601L104.287 22.4859L103.28 22.4787L103.275 23.2615ZM101.744 26.1804L101.148 25.6721L101.142 25.6803L101.744 26.1804ZM99.0361 28.2029L99.3549 28.918L99.0361 28.2029ZM91.078 27.85L90.6973 28.5342L91.078 27.85ZM88.1404 24.8696L88.8281 24.4952L88.1404 24.8696ZM88.1766 15.8734L87.4945 15.4892L87.49 15.4973L88.1766 15.8734ZM91.1575 12.9354L91.5281 13.625L91.1575 12.9354ZM99.769 12.9675L99.3921 13.6538L99.769 12.9675ZM102.648 15.8587L101.961 16.234L101.965 16.2422L102.648 15.8587ZM98.5127 18.8476L98.5069 19.6305L99.2898 19.6361L99.2956 18.8532L98.5127 18.8476ZM97.64 16.7698L98.1571 16.1818L97.64 16.7698ZM93.2606 16.7088L92.7638 16.1037L92.7538 16.1122L93.2606 16.7088ZM92.1799 18.8023L91.4068 18.6789L91.2632 19.5786L92.1742 19.5852L92.1799 18.8023ZM102.899 20.2107C102.895 20.6517 102.864 21.1146 102.805 21.6L104.359 21.7906C104.425 21.251 104.461 20.7279 104.464 20.2219L102.899 20.2107ZM103.588 20.9124L92.1355 20.8304L92.1241 22.3962L103.576 22.4782L103.588 20.9124ZM91.3488 21.6677C91.4295 22.8277 91.7999 23.8209 92.5411 24.547L93.6369 23.4283C93.242 23.0415 92.9729 22.4517 92.9108 21.5588L91.3488 21.6677ZM92.561 24.5658C93.3017 25.2421 94.2098 25.5776 95.2377 25.585L95.2491 24.0192C94.5804 24.0144 94.0523 23.8069 93.617 23.4095L92.561 24.5658ZM95.2377 25.585C95.9794 25.5903 96.6636 25.4381 97.2529 25.0863C97.8459 24.7324 98.2898 24.2078 98.5968 23.557L97.1807 22.889C96.9868 23.2999 96.7393 23.5695 96.4505 23.7419C96.158 23.9165 95.77 24.0229 95.2491 24.0192L95.2377 25.585ZM97.8831 24.0059L103.269 24.0444L103.28 22.4787L97.8945 22.4401L97.8831 24.0059ZM102.517 23.063C102.263 24.0305 101.809 24.8979 101.148 25.6722L102.339 26.6885C103.151 25.7372 103.717 24.6588 104.032 23.4601L102.517 23.063ZM101.142 25.6803C100.507 26.445 99.7033 27.0483 98.7174 27.4879L99.3549 28.918C100.546 28.3867 101.548 27.6416 102.346 26.6805L101.142 25.6803ZM98.7174 27.4879C97.7429 27.9224 96.6404 28.1427 95.3966 28.1338L95.3852 29.6996C96.8244 29.7099 98.152 29.4543 99.3549 28.918L98.7174 27.4879ZM95.3966 28.1338C93.8936 28.123 92.5878 27.7939 91.4587 27.1658L90.6973 28.5342C92.0833 29.3051 93.6527 29.6872 95.3852 29.6996L95.3966 28.1338ZM91.4587 27.1658C90.3333 26.5398 89.4594 25.6549 88.8281 24.4952L87.4528 25.244C88.2231 26.6591 89.3077 27.7612 90.6973 28.5342L91.4587 27.1658ZM88.8281 24.4952C88.2008 23.3428 87.8792 21.976 87.8909 20.3696L86.3251 20.3584C86.3118 22.1846 86.6784 23.8216 87.4528 25.244L88.8281 24.4952ZM87.8909 20.3696C87.9027 18.7597 88.2359 17.3946 88.8632 16.2495L87.49 15.4973C86.7177 16.907 86.3385 18.5356 86.3251 20.3584L87.8909 20.3696ZM88.8587 16.2576C89.5069 15.1071 90.3937 14.2348 91.5281 13.625L90.7869 12.2458C89.386 12.9989 88.2855 14.0853 87.4945 15.4892L88.8587 16.2576ZM91.5281 13.625C92.665 13.0138 93.9849 12.7028 95.5094 12.7137L95.5208 11.1479C93.7704 11.1354 92.1853 11.4941 90.7869 12.2458L91.5281 13.625ZM95.5094 12.7137C96.9948 12.7244 98.2822 13.0444 99.3921 13.6538L100.146 12.2812C98.7799 11.5312 97.2313 11.1602 95.5208 11.1479L95.5094 12.7137ZM99.3921 13.6538C100.498 14.261 101.351 15.1164 101.961 16.234L103.335 15.4833C102.583 14.1053 101.516 13.0332 100.146 12.2812L99.3921 13.6538ZM101.965 16.2422C102.59 17.3538 102.91 18.6681 102.899 20.2107L104.464 20.2219C104.477 18.4502 104.108 16.8594 103.331 15.4751L101.965 16.2422ZM99.2956 18.8532C99.3034 17.7857 98.9354 16.8663 98.1571 16.1818L97.123 17.3577C97.5209 17.7077 97.7347 18.1734 97.7298 18.842L99.2956 18.8532ZM98.1571 16.1818C97.4087 15.5237 96.4813 15.2091 95.432 15.2016L95.4205 16.7674C96.1468 16.7726 96.6952 16.9816 97.123 17.3577L98.1571 16.1818ZM95.432 15.2016C94.4203 15.1944 93.5154 15.4866 92.7638 16.1038L93.7574 17.3139C94.1967 16.9531 94.7356 16.7625 95.4205 16.7674L95.432 15.2016ZM92.7538 16.1122C92.0067 16.7469 91.5744 17.6293 91.4068 18.6789L92.9531 18.9256C93.075 18.1622 93.3631 17.649 93.7675 17.3055L92.7538 16.1122ZM92.1742 19.5852L98.5069 19.6305L98.5184 18.0647L92.1857 18.0194L92.1742 19.5852ZM126.235 8.12603L127.018 8.13164L127.024 7.34874L126.241 7.34314L126.235 8.12603ZM126.206 12.1801L126.2 12.963L126.983 12.9687L126.988 12.1858L126.206 12.1801ZM117.742 12.1196L117.748 11.3367L116.965 11.3311L116.959 12.1139L117.742 12.1196ZM117.71 16.4992L116.927 16.4936L116.922 17.2765L117.705 17.2821L117.71 16.4992ZM124.043 16.5445L124.826 16.5501L124.832 15.7672L124.049 15.7616L124.043 16.5445ZM124.014 20.4803L124.008 21.2632L124.791 21.2688L124.797 20.4859L124.014 20.4803ZM117.681 20.4349L117.687 19.652L116.904 19.6464L116.899 20.4293L117.681 20.4349ZM117.62 28.8391L117.614 29.622L118.397 29.6276L118.403 28.8447L117.62 28.8391ZM112.56 28.8028L111.777 28.7972L111.771 29.5801L112.554 29.5857L112.56 28.8028ZM112.712 8.02921L112.717 7.24631L111.934 7.24071L111.929 8.0236L112.712 8.02921ZM125.452 8.12043L125.423 12.1745L126.988 12.1858L127.018 8.13164L125.452 8.12043ZM126.211 11.3973L117.748 11.3367L117.737 12.9025L126.2 12.963L126.211 11.3973ZM116.959 12.1139L116.927 16.4936L118.493 16.5048L118.525 12.1252L116.959 12.1139ZM117.705 17.2821L124.037 17.3274L124.049 15.7616L117.716 15.7163L117.705 17.2821ZM123.26 16.5389L123.231 20.4747L124.797 20.4859L124.826 16.5501L123.26 16.5389ZM124.02 19.6974L117.687 19.652L117.676 21.2178L124.008 21.2632L124.02 19.6974ZM116.899 20.4293L116.837 28.8335L118.403 28.8447L118.464 20.4405L116.899 20.4293ZM117.626 28.0562L112.565 28.02L112.554 29.5857L117.614 29.622L117.626 28.0562ZM113.343 28.8085L113.495 8.03481L111.929 8.0236L111.777 28.7972L113.343 28.8085ZM112.706 8.8121L126.23 8.90893L126.241 7.34314L112.717 7.24631L112.706 8.8121ZM128.777 16.1641L128.081 15.8047L128.077 15.8133L128.777 16.1641ZM131.432 13.2238L131.842 13.8906L131.432 13.2238ZM138.182 12.9465L137.802 13.6312L137.808 13.6347L138.182 12.9465ZM140.21 14.8255L139.54 15.231L140.973 17.5971L140.993 14.8311L140.21 14.8255ZM140.227 12.4877L140.233 11.7048L139.45 11.6992L139.444 12.4821L140.227 12.4877ZM145.287 12.5239L146.07 12.5295L146.076 11.7466L145.293 11.741L145.287 12.5239ZM145.167 29.0363L145.161 29.8192L145.944 29.8248L145.949 29.0419L145.167 29.0363ZM140.106 29.0001L139.323 28.9945L139.318 29.7774L140.101 29.783L140.106 29.0001ZM140.123 26.6623L140.906 26.6679L140.926 23.9959L139.467 26.2351L140.123 26.6623ZM138.038 28.5118L137.675 27.8183L137.668 27.8218L138.038 28.5118ZM131.323 28.1382L130.895 28.7937L130.903 28.7991L131.323 28.1382ZM128.711 25.1305L128.004 25.467L128.008 25.4735L128.011 25.4799L128.711 25.1305ZM139.123 17.7475L138.55 18.2814L138.558 18.2894L139.123 17.7475ZM134.004 17.7108L133.447 17.1608L133.446 17.161L134.004 17.7108ZM133.96 23.6884L133.38 24.2147L133.388 24.2226L133.395 24.2303L133.96 23.6884ZM139.079 23.7251L138.522 23.175L138.515 23.183L139.079 23.7251ZM128.58 20.6313C128.592 19.0324 128.899 17.6673 129.477 16.5149L128.077 15.8133C127.374 17.2165 127.028 18.8258 127.014 20.6201L128.58 20.6313ZM129.473 16.5235C130.074 15.3588 130.866 14.491 131.842 13.8906L131.022 12.5569C129.779 13.3217 128.8 14.414 128.082 15.8047L129.473 16.5235ZM131.842 13.8906C132.821 13.2885 133.912 12.9887 135.133 12.9974L135.145 11.4316C133.644 11.4209 132.263 11.7939 131.022 12.5569L131.842 13.8906ZM135.133 12.9974C136.189 13.005 137.071 13.2254 137.802 13.6312L138.562 12.2619C137.564 11.7083 136.416 11.4407 135.145 11.4316L135.133 12.9974ZM137.808 13.6347C138.585 14.056 139.152 14.5902 139.54 15.231L140.88 14.4199C140.332 13.5152 139.547 12.7968 138.555 12.2584L137.808 13.6347ZM140.993 14.8311L141.01 12.4933L139.444 12.4821L139.427 14.8199L140.993 14.8311ZM140.221 13.2706L145.282 13.3068L145.293 11.741L140.233 11.7048L140.221 13.2706ZM144.504 12.5183L144.384 29.0307L145.949 29.0419L146.07 12.5295L144.504 12.5183ZM145.172 28.2534L140.112 28.2172L140.101 29.783L145.161 29.8192L145.172 28.2534ZM140.889 29.0057L140.906 26.6679L139.34 26.6567L139.323 28.9945L140.889 29.0057ZM139.467 26.2351C139.049 26.8776 138.46 27.407 137.675 27.8183L138.402 29.2052C139.399 28.6823 140.2 27.9788 140.779 27.0895L139.467 26.2351ZM137.668 27.8218C136.931 28.217 136.047 28.4248 134.991 28.4173L134.979 29.9831C136.251 29.9922 137.402 29.741 138.408 29.2018L137.668 27.8218ZM134.991 28.4173C133.791 28.4087 132.715 28.0945 131.743 27.4772L130.903 28.7991C132.131 29.5786 133.496 29.9724 134.979 29.9831L134.991 28.4173ZM131.751 27.4826C130.779 26.8476 129.998 25.9558 129.412 24.7811L128.011 25.4799C128.708 26.8792 129.668 27.9924 130.895 28.7937L131.751 27.4826ZM129.418 24.794C128.856 23.6112 128.569 22.2299 128.58 20.6313L127.014 20.6201C127.001 22.4148 127.324 24.0367 128.004 25.467L129.418 24.794ZM140.95 20.7495C140.96 19.3345 140.566 18.1211 139.688 17.2055L138.558 18.2894C139.09 18.8438 139.392 19.628 139.384 20.7383L140.95 20.7495ZM139.696 17.2135C138.864 16.321 137.813 15.8602 136.592 15.8514L136.581 17.4172C137.372 17.4229 138.012 17.7041 138.551 18.2814L139.696 17.2135ZM136.592 15.8514C135.372 15.8427 134.309 16.2876 133.447 17.1608L134.561 18.2608C135.13 17.6843 135.789 17.4116 136.581 17.4172L136.592 15.8514ZM133.446 17.161C132.571 18.0483 132.174 19.2491 132.164 20.657L133.729 20.6682C133.737 19.5509 134.045 18.7838 134.561 18.2606L133.446 17.161ZM132.164 20.657C132.153 22.067 132.534 23.2819 133.38 24.2147L134.54 23.1621C134.017 22.5857 133.721 21.7834 133.729 20.6682L132.164 20.657ZM133.395 24.2303C134.244 25.1158 135.3 25.5759 136.521 25.5846L136.532 24.0188C135.74 24.0132 135.086 23.7311 134.525 23.1465L133.395 24.2303ZM136.521 25.5846C137.742 25.5934 138.799 25.1476 139.644 24.2671L138.515 23.183C137.968 23.7525 137.324 24.0245 136.532 24.0188L136.521 25.5846ZM139.637 24.275C140.528 23.3721 140.939 22.1644 140.95 20.7495L139.384 20.7383C139.376 21.8485 139.062 22.6283 138.522 23.1751L139.637 24.275ZM148.95 16.3085L148.268 15.9243L148.264 15.9324L148.95 16.3085ZM151.902 13.3703L151.531 12.6807L151.526 12.6832L151.902 13.3703ZM161.396 14.0302L160.908 14.6423L160.912 14.6456L161.396 14.0302ZM164.115 18.6366L164.109 19.4195L165.083 19.4265L164.881 18.4739L164.115 18.6366ZM158.729 18.5981L157.99 18.8576L158.173 19.377L158.723 19.381L158.729 18.5981ZM153.882 17.7643L154.496 18.2495L154.503 18.2412L153.882 17.7643ZM153.837 23.9491L153.209 24.4171L153.215 24.4253L153.837 23.9491ZM158.696 23.1553L158.701 22.3724L158.151 22.3684L157.961 22.8852L158.696 23.1553ZM164.081 23.1938L164.844 23.3708L165.065 22.4179L164.087 22.4109L164.081 23.1938ZM161.296 27.7313L160.816 27.1131L161.296 27.7313ZM151.792 28.2847L151.407 28.9664L151.412 28.9689L151.792 28.2847ZM148.884 25.3045L148.192 25.6708L148.197 25.6789L148.884 25.3045ZM148.665 20.8047C148.676 19.1948 149.01 17.8297 149.637 16.6846L148.264 15.9324C147.491 17.3421 147.112 18.9708 147.099 20.7935L148.665 20.8047ZM149.632 16.6928C150.282 15.539 151.162 14.6665 152.277 14.0574L151.526 12.6832C150.146 13.4373 149.057 14.5236 148.268 15.9243L149.632 16.6928ZM152.272 14.0599C153.41 13.448 154.721 13.1377 156.224 13.1484L156.235 11.5826C154.503 11.5702 152.928 11.9297 151.531 12.6807L152.272 14.0599ZM156.224 13.1484C158.153 13.1622 159.696 13.6755 160.908 14.6423L161.884 13.418C160.351 12.1949 158.449 11.5985 156.235 11.5826L156.224 13.1484ZM160.912 14.6456C162.141 15.6117 162.962 16.9761 163.349 18.7994L164.881 18.4739C164.429 16.3453 163.437 14.6387 161.88 13.4147L160.912 14.6456ZM164.121 17.8537L158.735 17.8152L158.723 19.381L164.109 19.4195L164.121 17.8537ZM159.468 18.3386C159.206 17.5925 158.795 16.9707 158.202 16.5382C157.608 16.1043 156.896 15.908 156.115 15.9024L156.103 17.4682C156.625 17.472 157 17.5992 157.279 17.8028C157.56 18.0079 157.808 18.3378 157.99 18.8576L159.468 18.3386ZM156.115 15.9024C154.946 15.8941 153.97 16.364 153.261 17.2874L154.503 18.2412C154.909 17.7127 155.418 17.4633 156.103 17.4682L156.115 15.9024ZM153.267 17.2793C152.56 18.1749 152.258 19.3966 152.248 20.8304L153.814 20.8416C153.823 19.5924 154.088 18.7663 154.496 18.2494L153.267 17.2793ZM152.248 20.8304C152.237 22.2662 152.522 23.4958 153.209 24.417L154.464 23.4811C154.057 22.9345 153.804 22.0888 153.814 20.8416L152.248 20.8304ZM153.215 24.4253C153.914 25.338 154.882 25.8049 156.042 25.8132L156.054 24.2474C155.36 24.2424 154.853 23.9885 154.458 23.4729L153.215 24.4253ZM156.042 25.8132C156.823 25.8188 157.538 25.6328 158.139 25.2074C158.738 24.7834 159.158 24.1676 159.431 23.4253L157.961 22.8852C157.771 23.4023 157.518 23.7286 157.234 23.9296C156.952 24.1293 156.575 24.2511 156.054 24.2474L156.042 25.8132ZM158.69 23.9381L164.076 23.9767L164.087 22.4109L158.701 22.3724L158.69 23.9381ZM163.319 23.0169C162.907 24.7926 162.067 26.141 160.816 27.1131L161.776 28.3495C163.343 27.1321 164.36 25.4555 164.844 23.3708L163.319 23.0169ZM160.816 27.1131C159.566 28.0841 158.015 28.5821 156.111 28.5685L156.1 30.1343C158.3 30.15 160.208 29.568 161.776 28.3495L160.816 27.1131ZM156.111 28.5685C154.608 28.5577 153.302 28.2286 152.173 27.6005L151.412 28.9689C152.798 29.7398 154.367 30.1219 156.1 30.1343L156.111 28.5685ZM152.178 27.6031C151.072 26.9781 150.205 26.093 149.572 24.9301L148.197 25.6789C148.965 27.0909 150.038 28.1926 151.407 28.9664L152.178 27.6031ZM149.577 24.9383C148.966 23.7844 148.653 22.4146 148.665 20.8047L147.099 20.7935C147.085 22.6163 147.441 24.2501 148.192 25.6708L149.577 24.9383ZM175.979 24.9658L176.762 24.9714L176.768 24.1885L175.985 24.1829L175.979 24.9658ZM175.948 29.2567L175.942 30.0396L176.725 30.0452L176.731 29.2623L175.948 29.2567ZM169.092 27.8759L168.569 28.4586L168.575 28.4642L169.092 27.8759ZM167.634 16.8862L168.416 16.8918L168.422 16.1089L167.639 16.1033L167.634 16.8862ZM165.621 16.8718L164.838 16.8662L164.833 17.6491L165.616 17.6547L165.621 16.8718ZM165.652 12.6697L165.658 11.8868L164.875 11.8812L164.869 12.6641L165.652 12.6697ZM167.664 12.6841L167.659 13.467L168.441 13.4726L168.447 12.6897L167.664 12.6841ZM167.694 8.65961L167.699 7.87672L166.916 7.87111L166.911 8.65401L167.694 8.65961ZM172.754 8.69584L173.537 8.70145L173.543 7.91855L172.76 7.91295L172.754 8.69584ZM172.724 12.7204L171.942 12.7148L171.936 13.4977L172.719 13.5033L172.724 12.7204ZM176.039 12.7441L176.822 12.7497L176.827 11.9668L176.045 11.9612L176.039 12.7441ZM176.008 16.9462L176.002 17.7291L176.785 17.7347L176.791 16.9518L176.008 16.9462ZM172.694 16.9224L172.699 16.1395L171.917 16.1339L171.911 16.9168L172.694 16.9224ZM172.993 24.6189L172.459 25.1923L172.993 24.6189ZM175.196 24.9602L175.165 29.2511L176.731 29.2623L176.762 24.9714L175.196 24.9602ZM175.953 28.4738L173.379 28.4554L173.367 30.0211L175.942 30.0396L175.953 28.4738ZM173.379 28.4554C171.666 28.4431 170.443 28.0206 169.609 27.2876L168.575 28.4642C169.779 29.5214 171.411 30.0071 173.367 30.0211L173.379 28.4554ZM169.615 27.2932C168.83 26.5885 168.354 25.3787 168.368 23.4613L166.803 23.45C166.787 25.5965 167.316 27.3336 168.569 28.4586L169.615 27.2932ZM168.368 23.4613L168.416 16.8918L166.851 16.8806L166.803 23.45L168.368 23.4613ZM167.639 16.1033L165.627 16.0889L165.616 17.6547L167.628 17.6691L167.639 16.1033ZM166.404 16.8774L166.435 12.6753L164.869 12.6641L164.838 16.8662L166.404 16.8774ZM165.646 13.4526L167.659 13.467L167.67 11.9012L165.658 11.8868L165.646 13.4526ZM168.447 12.6897L168.477 8.66522L166.911 8.65401L166.881 12.6785L168.447 12.6897ZM167.688 9.44251L172.748 9.47874L172.76 7.91295L167.699 7.87672L167.688 9.44251ZM171.971 8.69024L171.942 12.7148L173.507 12.726L173.537 8.70145L171.971 8.69024ZM172.719 13.5033L176.033 13.527L176.045 11.9612L172.73 11.9375L172.719 13.5033ZM175.256 12.7385L175.225 16.9406L176.791 16.9518L176.822 12.7497L175.256 12.7385ZM176.014 16.1633L172.699 16.1395L172.688 17.7053L176.002 17.7291L176.014 16.1633ZM171.911 16.9168L171.862 23.5455L173.428 23.5567L173.477 16.928L171.911 16.9168ZM171.862 23.5455C171.858 24.1415 171.994 24.7598 172.459 25.1923L173.526 24.0456C173.521 24.0406 173.425 23.9471 173.428 23.5567L171.862 23.5455ZM172.459 25.1923C172.911 25.6122 173.55 25.7314 174.168 25.7358L174.18 24.17C173.693 24.1665 173.545 24.0631 173.526 24.0456L172.459 25.1923ZM174.168 25.7358L175.973 25.7487L175.985 24.1829L174.18 24.17L174.168 25.7358ZM181.909 28.5003L181.533 29.187L181.537 29.1894L181.909 28.5003ZM178.883 25.5193L178.199 25.9018L178.204 25.9096L178.883 25.5193ZM178.978 16.5531L179.651 16.9531L179.653 16.9486L178.978 16.5531ZM182.077 13.5864L182.439 14.2806L182.077 13.5864ZM190.836 13.6491L190.465 14.3381L190.836 13.6491ZM193.892 16.6599L193.211 17.0457L193.213 17.0502L193.892 16.6599ZM193.797 25.6261L193.126 25.223L193.124 25.2261L193.797 25.6261ZM190.668 28.5631L190.311 27.8665L190.306 27.8688L190.668 28.5631ZM188.777 24.1401L188.22 23.5902L188.212 23.5984L188.777 24.1401ZM188.851 18.0443L188.27 18.5693L188.278 18.5778L188.851 18.0443ZM183.968 18.0093L184.534 18.5506L184.542 18.5425L183.968 18.0093ZM183.894 24.1051L183.305 24.6211L183.313 24.63L183.894 24.1051ZM186.287 28.7845C184.784 28.7738 183.455 28.4446 182.281 27.8113L181.537 29.1894C182.957 29.9557 184.542 30.3379 186.275 30.3503L186.287 28.7845ZM182.285 27.8137C181.137 27.1846 180.231 26.2946 179.561 25.129L178.204 25.9096C179.014 27.3194 180.127 28.4168 181.533 29.187L182.285 27.8137ZM179.566 25.1369C178.922 23.9859 178.592 22.622 178.603 21.0191L177.038 21.0079C177.024 22.8376 177.402 24.4776 178.199 25.9017L179.566 25.1369ZM178.603 21.0191C178.615 19.4412 178.972 18.0945 179.651 16.9531L178.305 16.1532C177.465 17.5657 177.051 19.1925 177.038 21.0079L178.603 21.0191ZM179.653 16.9486C180.34 15.7765 181.265 14.8923 182.439 14.2806L181.715 12.8921C180.275 13.6427 179.134 14.7364 178.302 16.1576L179.653 16.9486ZM182.439 14.2806C183.622 13.6642 184.956 13.3541 186.459 13.3649L186.47 11.7991C184.737 11.7867 183.147 12.1462 181.715 12.8921L182.439 14.2806ZM186.459 13.3649C187.961 13.3756 189.291 13.7048 190.465 14.3381L191.208 12.96C189.788 12.1937 188.203 11.8115 186.47 11.7991L186.459 13.3649ZM190.465 14.3381C191.629 14.9665 192.542 15.8638 193.211 17.0457L194.573 16.2741C193.762 14.8411 192.638 13.7312 191.208 12.96L190.465 14.3381ZM193.213 17.0502C193.875 18.2012 194.213 19.5529 194.201 21.1308L195.767 21.142C195.78 19.3266 195.39 17.694 194.571 16.2696L193.213 17.0502ZM194.201 21.1308C194.19 22.7047 193.824 24.0607 193.126 25.223L194.468 26.0292C195.328 24.5984 195.754 22.9612 195.767 21.142L194.201 21.1308ZM193.124 25.2261C192.44 26.376 191.507 27.2525 190.311 27.8665L191.026 29.2596C192.483 28.5116 193.635 27.4301 194.47 26.0261L193.124 25.2261ZM190.306 27.8688C189.124 28.4852 187.789 28.7953 186.287 28.7845L186.275 30.3503C188.008 30.3627 189.599 30.0032 191.03 29.2573L190.306 27.8688ZM186.307 25.9707C187.492 25.9792 188.519 25.5408 189.342 24.6817L188.212 23.5984C187.683 24.1502 187.067 24.4103 186.319 24.4049L186.307 25.9707ZM189.334 24.6898C190.216 23.7962 190.607 22.5606 190.618 21.1051L189.052 21.0939C189.043 22.2819 188.729 23.0734 188.22 23.5903L189.334 24.6898ZM190.618 21.1051C190.628 19.6553 190.268 18.4174 189.424 17.5108L188.278 18.5778C188.765 19.1012 189.061 19.9001 189.052 21.0939L190.618 21.1051ZM189.432 17.5194C188.639 16.6411 187.623 16.1872 186.438 16.1787L186.427 17.7445C187.175 17.7499 187.772 18.0178 188.27 18.5692L189.432 17.5194ZM186.438 16.1787C185.238 16.1701 184.205 16.6056 183.395 17.4762L184.542 18.5425C185.044 18.002 185.654 17.739 186.427 17.7445L186.438 16.1787ZM183.403 17.4682C182.56 18.3487 182.197 19.5863 182.187 21.0447L183.752 21.0559C183.761 19.8313 184.064 19.0416 184.534 18.5505L183.403 17.4682ZM182.187 21.0447C182.176 22.4833 182.511 23.7142 183.305 24.621L184.483 23.5892C184.025 23.0665 183.744 22.2609 183.752 21.0559L182.187 21.0447ZM183.313 24.63C184.107 25.5083 185.122 25.9622 186.307 25.9707L186.319 24.4049C185.571 24.3995 184.973 24.1316 184.475 23.5802L183.313 24.63ZM202.769 15.6877L201.986 15.6821L201.967 18.3157L203.422 16.12L202.769 15.6877ZM205.004 13.5729L205.391 14.2537L205.402 14.2472L205.004 13.5729ZM207.969 12.7951L208.752 12.8008L208.758 12.0179L207.975 12.0123L207.969 12.7951ZM207.93 18.1513L207.924 18.9342L208.707 18.9398L208.713 18.1569L207.93 18.1513ZM203.692 18.9496L204.193 19.5517L204.203 19.5425L203.692 18.9496ZM202.668 29.448L202.663 30.2309L203.446 30.2365L203.451 29.4536L202.668 29.448ZM197.608 29.4118L196.825 29.4062L196.82 30.1891L197.602 30.1947L197.608 29.4118ZM197.729 12.8994L197.735 12.1165L196.952 12.1109L196.946 12.8938L197.729 12.8994ZM202.789 12.9356L203.572 12.9412L203.578 12.1583L202.795 12.1527L202.789 12.9356ZM203.422 16.12C203.956 15.3133 204.612 14.696 205.391 14.2536L204.617 12.8923C203.613 13.463 202.779 14.2555 202.116 15.2553L203.422 16.12ZM205.402 14.2472C206.165 13.7965 207.013 13.5712 207.963 13.578L207.975 12.0123C206.755 12.0035 205.626 12.2968 204.606 12.8987L205.402 14.2472ZM207.186 12.7895L207.147 18.1457L208.713 18.1569L208.752 12.8008L207.186 12.7895ZM207.936 17.3684L206.545 17.3585L206.533 18.9242L207.924 18.9342L207.936 17.3684ZM206.545 17.3585C205.185 17.3487 204.017 17.6355 203.181 18.3567L204.203 19.5425C204.638 19.1679 205.368 18.9159 206.533 18.9242L206.545 17.3585ZM203.192 18.3476C202.291 19.0963 201.952 20.332 201.942 21.778L203.507 21.7893C203.517 20.5128 203.823 19.8592 204.193 19.5516L203.192 18.3476ZM201.942 21.778L201.886 29.4424L203.451 29.4536L203.507 21.7893L201.942 21.778ZM202.674 28.6651L197.614 28.6289L197.602 30.1947L202.663 30.2309L202.674 28.6651ZM198.391 29.4174L198.512 12.905L196.946 12.8938L196.825 29.4062L198.391 29.4174ZM197.723 13.6823L202.783 13.7185L202.795 12.1527L197.735 12.1165L197.723 13.6823ZM202.006 12.93L201.986 15.6821L203.552 15.6933L203.572 12.9412L202.006 12.93ZM227.254 13.1108L227.972 13.4223L228.443 12.3364L227.26 12.3279L227.254 13.1108ZM216.719 37.3909L216.713 38.1738L217.231 38.1775L217.437 37.7025L216.719 37.3909ZM211.274 37.3519L210.562 37.0251L210.056 38.1261L211.268 38.1348L211.274 37.3519ZM215.123 28.9749L215.834 29.3017L215.977 28.9916L215.847 28.6762L215.123 28.9749ZM208.522 12.9767L208.528 12.1938L207.349 12.1853L207.798 13.2754L208.522 12.9767ZM214.174 13.0171L214.911 12.751L214.725 12.2381L214.18 12.2342L214.174 13.0171ZM217.916 23.3721L217.18 23.6383L217.902 25.638L218.649 23.6469L217.916 23.3721ZM221.779 13.0716L221.785 12.2887L221.238 12.2848L221.046 12.7967L221.779 13.0716ZM226.536 12.7992L216 37.0794L217.437 37.7025L227.972 13.4223L226.536 12.7992ZM216.724 36.608L211.279 36.569L211.268 38.1348L216.713 38.1738L216.724 36.608ZM211.985 37.6787L215.834 29.3017L214.412 28.6481L210.562 37.0251L211.985 37.6787ZM215.847 28.6762L209.246 12.678L207.798 13.2754L214.399 29.2736L215.847 28.6762ZM208.516 13.7596L214.169 13.8L214.18 12.2342L208.528 12.1938L208.516 13.7596ZM213.438 13.2833L217.18 23.6383L218.652 23.1059L214.911 12.751L213.438 13.2833ZM218.649 23.6469L222.512 13.3464L221.046 12.7967L217.183 23.0973L218.649 23.6469ZM221.774 13.8545L227.248 13.8937L227.26 12.3279L221.785 12.2887L221.774 13.8545ZM78.8862 43.788L79.6691 43.7936L79.6748 43.0107L78.8919 43.0051L78.8862 43.788ZM78.8566 47.8421L78.8508 48.625L79.6337 48.6306L79.6395 47.8477L78.8566 47.8421ZM73.3524 47.8027L73.3581 47.0198L72.5753 47.0142L72.5695 47.7971L73.3524 47.8027ZM73.2302 64.5222L73.2244 65.3051L74.0073 65.3107L74.0131 64.5278L73.2302 64.5222ZM68.1699 64.486L67.387 64.4803L67.3813 65.2632L68.1642 65.2688L68.1699 64.486ZM68.2922 47.7664L69.0751 47.772L69.0808 46.9891L68.2979 46.9835L68.2922 47.7664ZM62.788 47.727L62.0051 47.7214L61.9994 48.5043L62.7823 48.5099L62.788 47.727ZM62.8177 43.6729L62.8234 42.89L62.0405 42.8844L62.0348 43.6673L62.8177 43.6729ZM78.1033 43.7823L78.0737 47.8365L79.6395 47.8477L79.6691 43.7936L78.1033 43.7823ZM78.8623 47.0592L73.3581 47.0198L73.3467 48.5856L78.8508 48.625L78.8623 47.0592ZM72.5695 47.7971L72.4473 64.5166L74.0131 64.5278L74.1353 47.8083L72.5695 47.7971ZM73.2359 63.7393L68.1756 63.7031L68.1642 65.2688L73.2244 65.3051L73.2359 63.7393ZM68.9528 64.4916L69.0751 47.772L67.5093 47.7608L67.387 64.4803L68.9528 64.4916ZM68.2979 46.9835L62.7938 46.9441L62.7823 48.5099L68.2864 48.5493L68.2979 46.9835ZM63.5709 47.7326L63.6006 43.6785L62.0348 43.6673L62.0051 47.7214L63.5709 47.7326ZM62.812 44.4558L78.8805 44.5708L78.8919 43.0051L62.8234 42.89L62.812 44.4558ZM98.2621 48.1882L98.9804 48.4997L99.4516 47.4137L98.2679 47.4053L98.2621 48.1882ZM87.7268 72.4683L87.7211 73.2512L88.2389 73.2549L88.445 72.7798L87.7268 72.4683ZM82.2819 72.4293L81.5705 72.1025L81.0645 73.2035L82.2761 73.2122L82.2819 72.4293ZM86.1311 64.0523L86.8425 64.3791L86.985 64.069L86.8548 63.7536L86.1311 64.0523ZM79.5303 48.054L79.5361 47.2712L78.3569 47.2627L78.8066 48.3527L79.5303 48.054ZM85.1824 48.0945L85.9188 47.8283L85.7334 47.3155L85.1882 47.3116L85.1824 48.0945ZM88.9243 58.4495L88.188 58.7157L88.9106 60.7154L89.6573 58.7243L88.9243 58.4495ZM92.7876 48.149L92.7933 47.3661L92.2466 47.3622L92.0546 47.8741L92.7876 48.149ZM97.5439 47.8766L87.0086 72.1567L88.445 72.7798L98.9804 48.4997L97.5439 47.8766ZM87.7325 71.6854L82.2876 71.6464L82.2761 73.2122L87.7211 73.2512L87.7325 71.6854ZM82.9933 72.7561L86.8425 64.3791L85.4197 63.7255L81.5705 72.1025L82.9933 72.7561ZM86.8548 63.7536L80.2541 47.7553L78.8066 48.3527L85.4074 64.351L86.8548 63.7536ZM79.5246 48.8369L85.1767 48.8774L85.1882 47.3116L79.5361 47.2712L79.5246 48.8369ZM84.4461 48.3607L88.188 58.7157L89.6606 58.1833L85.9188 47.8283L84.4461 48.3607ZM89.6573 58.7243L93.5207 48.4238L92.0546 47.8741L88.1912 58.1746L89.6573 58.7243ZM92.7819 48.9319L98.2564 48.9711L98.2679 47.4053L92.7933 47.3661L92.7819 48.9319ZM100.094 51.9597L99.412 51.5754L99.4075 51.5836L100.094 51.9597ZM103.045 49.0214L102.675 48.3318L102.67 48.3343L103.045 49.0214ZM112.54 49.6813L112.052 50.2934L112.056 50.2968L112.54 49.6813ZM115.259 54.2878L115.253 55.0707L116.227 55.0776L116.024 54.125L115.259 54.2878ZM109.873 54.2492L109.134 54.5087L109.317 55.0282L109.867 55.0321L109.873 54.2492ZM105.026 53.4155L105.64 53.9006L105.646 53.8924L105.026 53.4155ZM104.98 59.6002L104.353 60.0682L104.359 60.0764L104.98 59.6002ZM109.84 58.8064L109.845 58.0235L109.295 58.0195L109.105 58.5363L109.84 58.8064ZM115.225 58.8449L115.988 59.0219L116.209 58.069L115.231 58.062L115.225 58.8449ZM112.44 63.3824L111.96 62.7642L112.44 63.3824ZM102.936 63.9358L102.551 64.6175L102.556 64.62L102.936 63.9358ZM100.028 60.9557L99.3362 61.3219L99.3407 61.3301L100.028 60.9557ZM99.8084 56.4559C99.8202 54.8459 100.153 53.4808 100.781 52.3358L99.4075 51.5836C98.6351 52.9933 98.2559 54.6219 98.2426 56.4446L99.8084 56.4559ZM100.776 52.3439C101.426 51.1902 102.305 50.3176 103.421 49.7085L102.67 48.3343C101.289 49.0884 100.201 50.1747 99.412 51.5754L100.776 52.3439ZM103.416 49.711C104.554 49.0991 105.865 48.7888 107.368 48.7995L107.379 47.2338C105.647 47.2213 104.072 47.5808 102.675 48.3319L103.416 49.711ZM107.368 48.7995C109.296 48.8133 110.84 49.3267 112.052 50.2934L113.028 49.0691C111.495 47.8461 109.593 47.2496 107.379 47.2338L107.368 48.7995ZM112.056 50.2968C113.285 51.2628 114.106 52.6273 114.493 54.4505L116.024 54.125C115.572 51.9964 114.581 50.2899 113.024 49.0658L112.056 50.2968ZM115.264 53.5049L109.879 53.4663L109.867 55.0321L115.253 55.0707L115.264 53.5049ZM110.612 53.9897C110.35 53.2436 109.939 52.6218 109.346 52.1893C108.752 51.7554 108.04 51.5591 107.259 51.5536L107.247 53.1193C107.769 53.1231 108.144 53.2503 108.423 53.454C108.704 53.659 108.952 53.989 109.134 54.5087L110.612 53.9897ZM107.259 51.5536C106.09 51.5452 105.114 52.0151 104.405 52.9386L105.646 53.8924C106.052 53.3638 106.562 53.1144 107.247 53.1193L107.259 51.5536ZM104.411 52.9304C103.704 53.826 103.402 55.0477 103.392 56.4815L104.957 56.4927C104.967 55.2435 105.232 54.4174 105.64 53.9005L104.411 52.9304ZM103.392 56.4815C103.381 57.9173 103.666 59.147 104.353 60.0682L105.608 59.1322C105.201 58.5857 104.948 57.7399 104.957 56.4927L103.392 56.4815ZM104.359 60.0764C105.058 60.9891 106.026 61.456 107.186 61.4643L107.198 59.8985C106.503 59.8936 105.997 59.6397 105.602 59.124L104.359 60.0764ZM107.186 61.4643C107.967 61.4699 108.682 61.2839 109.283 60.8585C109.882 60.4345 110.301 59.8187 110.574 59.0764L109.105 58.5363C108.915 59.0534 108.662 59.3798 108.378 59.5808C108.096 59.7804 107.719 59.9023 107.198 59.8985L107.186 61.4643ZM109.834 59.5893L115.22 59.6278L115.231 58.062L109.845 58.0235L109.834 59.5893ZM114.463 58.668C114.05 60.4437 113.211 61.7921 111.96 62.7642L112.92 64.0006C114.487 62.7832 115.504 61.1066 115.988 59.0219L114.463 58.668ZM111.96 62.7642C110.71 63.7352 109.158 64.2332 107.255 64.2196L107.243 65.7854C109.443 65.8011 111.352 65.2191 112.92 64.0006L111.96 62.7642ZM107.255 64.2196C105.752 64.2088 104.446 63.8798 103.317 63.2516L102.556 64.62C103.942 65.391 105.511 65.773 107.243 65.7854L107.255 64.2196ZM103.322 63.2542C102.215 62.6292 101.349 61.7442 100.716 60.5813L99.3407 61.3301C100.109 62.742 101.182 63.8437 102.551 64.6175L103.322 63.2542ZM100.72 60.5894C100.11 59.4355 99.7966 58.0658 99.8084 56.4559L98.2426 56.4446C98.2293 58.2674 98.5846 59.9013 99.3363 61.3219L100.72 60.5894ZM121.031 64.0654L120.655 64.7521L120.659 64.7544L121.031 64.0654ZM118.005 61.0844L117.321 61.4668L117.326 61.4746L118.005 61.0844ZM118.1 52.1182L118.773 52.5181L118.775 52.5137L118.1 52.1182ZM121.199 49.1514L121.561 49.8457L121.561 49.8457L121.199 49.1514ZM129.958 49.2141L129.587 49.9032L129.587 49.9032L129.958 49.2141ZM133.014 52.225L132.333 52.6107L132.335 52.6152L133.014 52.225ZM132.919 61.1911L132.248 60.788L132.246 60.7912L132.919 61.1911ZM129.79 64.1281L129.433 63.4316L129.428 63.4338L129.79 64.1281ZM127.899 59.7051L127.342 59.1553L127.334 59.1635L127.899 59.7051ZM127.973 53.6094L127.392 54.1343L127.4 54.1428L127.973 53.6094ZM123.09 53.5744L123.656 54.1156L123.664 54.1076L123.09 53.5744ZM123.016 59.6702L122.427 60.1862L122.435 60.195L123.016 59.6702ZM125.409 64.3496C123.906 64.3388 122.577 64.0097 121.403 63.3764L120.659 64.7544C122.079 65.5207 123.664 65.903 125.397 65.9154L125.409 64.3496ZM121.407 63.3787C120.259 62.7496 119.353 61.8597 118.683 60.6941L117.326 61.4746C118.136 62.8844 119.249 63.9818 120.655 64.7521L121.407 63.3787ZM118.688 60.7019C118.044 59.551 117.714 58.187 117.725 56.5841L116.16 56.5729C116.146 58.4027 116.524 60.0426 117.321 61.4668L118.688 60.7019ZM117.725 56.5841C117.737 55.0063 118.094 53.6596 118.773 52.5181L117.427 51.7182C116.587 53.1307 116.173 54.7575 116.16 56.5729L117.725 56.5841ZM118.775 52.5137C119.462 51.3415 120.387 50.4574 121.561 49.8457L120.837 48.4571C119.397 49.2078 118.256 50.3015 117.424 51.7227L118.775 52.5137ZM121.561 49.8457C122.744 49.2293 124.078 48.9192 125.581 48.9299L125.592 47.3642C123.859 47.3517 122.269 47.7112 120.837 48.4571L121.561 49.8457ZM125.581 48.9299C127.083 48.9407 128.413 49.2699 129.587 49.9032L130.33 48.5251C128.91 47.7588 127.325 47.3766 125.592 47.3642L125.581 48.9299ZM129.587 49.9032C130.751 50.5316 131.664 51.4289 132.333 52.6107L133.696 51.8392C132.884 50.4062 131.76 49.2963 130.33 48.5251L129.587 49.9032ZM132.335 52.6152C132.997 53.7663 133.335 55.118 133.323 56.6958L134.889 56.707C134.902 54.8916 134.512 53.259 133.693 51.8347L132.335 52.6152ZM133.323 56.6958C133.312 58.2698 132.946 59.6258 132.248 60.788L133.59 61.5943C134.45 60.1635 134.876 58.5263 134.889 56.707L133.323 56.6958ZM132.246 60.7912C131.563 61.9411 130.629 62.8175 129.433 63.4316L130.148 64.8246C131.605 64.0767 132.757 62.9951 133.592 61.5911L132.246 60.7912ZM129.428 63.4338C128.246 64.0503 126.911 64.3603 125.409 64.3496L125.397 65.9154C127.13 65.9278 128.721 65.5683 130.152 64.8224L129.428 63.4338ZM125.429 61.5357C126.614 61.5442 127.641 61.1058 128.464 60.2467L127.334 59.1635C126.805 59.7152 126.189 59.9753 125.441 59.9699L125.429 61.5357ZM128.456 60.2549C129.338 59.3612 129.729 58.1257 129.74 56.6702L128.174 56.6589C128.165 57.847 127.852 58.6385 127.342 59.1554L128.456 60.2549ZM129.74 56.6702C129.75 55.2204 129.39 53.9825 128.546 53.0759L127.4 54.1428C127.887 54.6662 128.183 55.4652 128.174 56.6589L129.74 56.6702ZM128.554 53.0845C127.761 52.2061 126.745 51.7523 125.56 51.7438L125.549 53.3096C126.297 53.3149 126.894 53.5828 127.392 54.1342L128.554 53.0845ZM125.56 51.7438C124.36 51.7352 123.327 52.1707 122.517 53.0412L123.664 54.1076C124.166 53.567 124.776 53.304 125.549 53.3096L125.56 51.7438ZM122.525 53.0332C121.682 53.9138 121.319 55.1514 121.309 56.6098L122.875 56.621C122.883 55.3964 123.186 54.6067 123.656 54.1156L122.525 53.0332ZM121.309 56.6098C121.298 58.0483 121.633 59.2793 122.427 60.1861L123.605 59.1542C123.147 58.6316 122.866 57.826 122.875 56.621L121.309 56.6098ZM122.435 60.195C123.229 61.0734 124.244 61.5273 125.429 61.5357L125.441 59.9699C124.693 59.9646 124.095 59.6967 123.597 59.1453L122.435 60.195ZM139.873 64.2003L139.497 64.887L139.501 64.8893L139.873 64.2003ZM136.846 61.2193L136.163 61.6017L136.168 61.6096L136.846 61.2193ZM136.942 52.2531L137.615 52.6531L137.617 52.6486L136.942 52.2531ZM140.041 49.2863L140.403 49.9806L140.403 49.9806L140.041 49.2863ZM148.8 49.349L148.428 50.0381L148.428 50.0381L148.8 49.349ZM151.856 52.3599L151.175 52.7457L151.177 52.7501L151.856 52.3599ZM151.761 61.326L151.09 60.9229L151.088 60.9261L151.761 61.326ZM148.632 64.263L148.275 63.5665L148.27 63.5687L148.632 64.263ZM146.741 59.84L146.183 59.2902L146.176 59.2984L146.741 59.84ZM146.815 53.7443L146.234 54.2692L146.242 54.2777L146.815 53.7443ZM141.932 53.7093L142.498 54.2505L142.506 54.2425L141.932 53.7093ZM141.858 59.8051L141.269 60.3211L141.277 60.3299L141.858 59.8051ZM144.251 64.4845C142.748 64.4737 141.418 64.1446 140.245 63.5113L139.501 64.8893C140.921 65.6556 142.506 66.0379 144.239 66.0503L144.251 64.4845ZM140.249 63.5136C139.101 62.8845 138.195 61.9946 137.525 60.829L136.168 61.6096C136.978 63.0193 138.091 64.1167 139.497 64.887L140.249 63.5136ZM137.53 60.8368C136.886 59.6859 136.556 58.3219 136.567 56.719L135.002 56.7078C134.988 58.5376 135.366 60.1775 136.163 61.6017L137.53 60.8368ZM136.567 56.719C136.579 55.1412 136.936 53.7945 137.615 52.653L136.269 51.8531C135.429 53.2656 135.015 54.8924 135.002 56.7078L136.567 56.719ZM137.617 52.6486C138.304 51.4764 139.229 50.5923 140.403 49.9806L139.679 48.592C138.239 49.3427 137.098 50.4364 136.266 51.8576L137.617 52.6486ZM140.403 49.9806C141.586 49.3642 142.92 49.0541 144.423 49.0648L144.434 47.4991C142.701 47.4866 141.111 47.8461 139.679 48.592L140.403 49.9806ZM144.423 49.0648C145.925 49.0756 147.255 49.4048 148.428 50.0381L149.172 48.66C147.752 47.8937 146.167 47.5115 144.434 47.4991L144.423 49.0648ZM148.428 50.0381C149.593 50.6665 150.506 51.5638 151.175 52.7456L152.537 51.9741C151.726 50.5411 150.601 49.4312 149.172 48.66L148.428 50.0381ZM151.177 52.7501C151.839 53.9012 152.176 55.2529 152.165 56.8307L153.731 56.8419C153.744 55.0265 153.354 53.394 152.535 51.9696L151.177 52.7501ZM152.165 56.8307C152.153 58.4047 151.788 59.7607 151.09 60.9229L152.432 61.7292C153.292 60.2984 153.717 58.6612 153.731 56.8419L152.165 56.8307ZM151.088 60.9261C150.404 62.076 149.471 62.9524 148.275 63.5665L148.989 64.9595C150.447 64.2116 151.599 63.13 152.434 61.726L151.088 60.9261ZM148.27 63.5687C147.087 64.1852 145.753 64.4952 144.251 64.4845L144.239 66.0503C145.972 66.0627 147.562 65.7032 148.994 64.9573L148.27 63.5687ZM144.271 61.6706C145.456 61.6791 146.483 61.2407 147.306 60.3816L146.176 59.2984C145.647 59.8501 145.031 60.1102 144.283 60.1049L144.271 61.6706ZM147.298 60.3898C148.18 59.4962 148.571 58.2606 148.582 56.8051L147.016 56.7938C147.007 57.9819 146.693 58.7734 146.183 59.2903L147.298 60.3898ZM148.582 56.8051C148.592 55.3553 148.232 54.1174 147.388 53.2108L146.242 54.2777C146.729 54.8012 147.025 55.6001 147.016 56.7938L148.582 56.8051ZM147.396 53.2194C146.602 52.341 145.587 51.8872 144.402 51.8787L144.391 53.4445C145.139 53.4498 145.736 53.7177 146.234 54.2692L147.396 53.2194ZM144.402 51.8787C143.202 51.8701 142.169 52.3056 141.359 53.1762L142.506 54.2425C143.008 53.7019 143.618 53.4389 144.391 53.4445L144.402 51.8787ZM141.367 53.1682C140.524 54.0487 140.161 55.2863 140.151 56.7447L141.716 56.7559C141.725 55.5313 142.028 54.7416 142.498 54.2505L141.367 53.1682ZM140.151 56.7447C140.14 58.1832 140.475 59.4142 141.269 60.321L142.447 59.2891C141.989 58.7665 141.708 57.9609 141.716 56.7559L140.151 56.7447ZM141.277 60.3299C142.071 61.2083 143.086 61.6622 144.271 61.6706L144.283 60.1049C143.535 60.0995 142.937 59.8316 142.439 59.2802L141.277 60.3299ZM170.358 50.4208L169.774 50.9424L169.783 50.9518L170.358 50.4208ZM171.996 65.2293L171.99 66.0122L172.773 66.0178L172.779 65.2349L171.996 65.2293ZM166.965 65.1933L166.182 65.1877L166.176 65.9706L166.959 65.9762L166.965 65.1933ZM166.191 53.6462L165.616 54.177L166.191 53.6462ZM161.575 53.6132L162.143 54.1521L161.575 53.6132ZM160.632 65.148L160.627 65.9308L161.409 65.9365L161.415 65.1536L160.632 65.148ZM155.572 65.1117L154.789 65.1061L154.783 65.889L155.566 65.8946L155.572 65.1117ZM155.693 48.5993L155.699 47.8165L154.916 47.8108L154.91 48.5937L155.693 48.5993ZM160.753 48.6356L161.536 48.6412L161.542 47.8583L160.759 47.8527L160.753 48.6356ZM160.737 50.8254L159.954 50.8198L159.936 53.2956L161.374 51.2801L160.737 50.8254ZM162.821 49.1239L163.153 49.8328L163.16 49.8298L163.166 49.8266L162.821 49.1239ZM165.75 49.2767C167.495 49.2892 168.807 49.8594 169.774 50.9424L170.942 49.8992C169.639 48.4405 167.883 47.7261 165.761 47.7109L165.75 49.2767ZM169.783 50.9518C170.767 52.0188 171.298 53.5268 171.283 55.5767L172.849 55.5879C172.866 53.2582 172.258 51.3251 170.933 49.8897L169.783 50.9518ZM171.283 55.5767L171.213 65.2237L172.779 65.2349L172.849 55.5879L171.283 55.5767ZM172.001 64.4464L166.971 64.4104L166.959 65.9762L171.99 66.0122L172.001 64.4464ZM167.748 65.1989L167.813 56.2325L166.248 56.2213L166.182 65.1877L167.748 65.1989ZM167.813 56.2325C167.823 54.9942 167.508 53.9189 166.767 53.1155L165.616 54.177C166.01 54.605 166.255 55.25 166.248 56.2213L167.813 56.2325ZM166.767 53.1155C166.029 52.3155 165.042 51.9377 163.895 51.9295L163.884 53.4953C164.671 53.5009 165.218 53.7457 165.616 54.177L166.767 53.1155ZM163.895 51.9295C162.749 51.9213 161.756 52.2849 161.007 53.0743L162.143 54.1521C162.547 53.7266 163.097 53.4896 163.884 53.4953L163.895 51.9295ZM161.007 53.0743C160.255 53.8669 159.924 54.9377 159.915 56.176L161.481 56.1872C161.488 55.2159 161.742 54.5744 162.143 54.1521L161.007 53.0743ZM159.915 56.176L159.849 65.1424L161.415 65.1536L161.481 56.1872L159.915 56.176ZM160.638 64.3651L155.578 64.3288L155.566 65.8946L160.627 65.9308L160.638 64.3651ZM156.355 65.1173L156.476 48.605L154.91 48.5937L154.789 65.1061L156.355 65.1173ZM155.687 49.3822L160.747 49.4185L160.759 47.8527L155.699 47.8165L155.687 49.3822ZM159.97 48.63L159.954 50.8198L161.52 50.831L161.536 48.6412L159.97 48.63ZM161.374 51.2801C161.808 50.6719 162.394 50.1884 163.153 49.8328L162.489 48.4149C161.506 48.8755 160.702 49.5263 160.1 50.3707L161.374 51.2801ZM163.166 49.8266C163.916 49.4585 164.772 49.2697 165.75 49.2767L165.761 47.7109C164.569 47.7024 163.469 47.9337 162.476 48.4211L163.166 49.8266Z" fill="#40BEFD" mask="url(#path-1-outside-1_242_158)"/>
</g>
<defs>
<filter id="filter0_d_242_158" x="10.5454" y="6.17661" width="216.748" height="68.406" filterUnits="userSpaceOnUse" color-interpolation-filters="sRGB">
<feFlood flood-opacity="0" result="BackgroundImageFix"/>
<feColorMatrix in="SourceAlpha" type="matrix" values="0 0 0 0 0 0 0 0 0 0 0 0 0 0 0 0 0 0 127 0" result="hardAlpha"/>
<feOffset dy="1.11845"/>
<feComposite in2="hardAlpha" operator="out"/>
<feColorMatrix type="matrix" values="0 0 0 0 1 0 0 0 0 1 0 0 0 0 1 0 0 0 1 0"/>
<feBlend mode="normal" in2="BackgroundImageFix" result="effect1_dropShadow_242_158"/>
<feBlend mode="normal" in="SourceGraphic" in2="effect1_dropShadow_242_158" result="shape"/>
</filter>
</defs>
</svg>
